<svg width="100%" height="100%" viewBox="0 0 74 74" fill="none" xmlns="http://www.w3.org/2000/svg">
<g clip-path="url(#clip0_1_472)">
<path fill-rule="evenodd" clip-rule="evenodd" d="M20.1142 31.2579C16.1741 31.2579 12.9697 34.4623 12.9697 38.402L12.9699 65.2404C12.9699 69.1801 16.1741 72.3844 20.1138 72.3844H37.0111C40.9506 72.3844 44.155 69.1801 44.155 65.2404L44.1553 38.402C44.1553 34.4623 40.9506 31.2579 37.0109 31.2579H20.1142ZM37.0111 74.0002H20.1142C15.2838 74.0002 11.354 70.0703 11.354 65.2404V38.402C11.354 33.5719 15.2838 29.6422 20.1138 29.6422H37.0111C41.8409 29.6422 45.7707 33.5719 45.7707 38.402V65.2404C45.7707 70.0703 41.8409 74.0002 37.0111 74.0002Z" fill="currentColor"/>
<path fill-rule="evenodd" clip-rule="evenodd" d="M20.8833 45.94C19.8078 45.94 18.9325 46.8152 18.9325 47.8905L18.9328 55.7517C18.9328 56.827 19.8077 57.7022 20.8831 57.7022H36.242C37.3174 57.7022 38.1923 56.827 38.1923 55.7517L38.1926 47.8905C38.1926 46.8151 37.3172 45.94 36.2418 45.94H20.8833ZM36.242 59.3178H20.8833C18.9176 59.3178 17.3169 57.7174 17.3169 55.7517L17.3171 47.8905C17.3171 45.9248 18.9174 44.3245 20.8831 44.3245H36.242C38.2076 44.3245 39.808 45.9248 39.808 47.8905L39.8084 55.7517C39.8084 57.7174 38.2075 59.3178 36.242 59.3178Z" fill="currentColor"/>
<path fill-rule="evenodd" clip-rule="evenodd" d="M35.3667 31.2579C34.9207 31.2579 34.5586 30.896 34.5586 30.4499V15.8301H22.5644V30.4499C22.5644 30.896 22.204 31.2579 21.7564 31.2579C21.3107 31.2579 20.9485 30.896 20.9485 30.4499L20.9487 15.0223C20.9487 14.5763 21.3104 14.2144 21.7564 14.2144H35.3667C35.8143 14.2144 36.1743 14.5763 36.1743 15.0223L36.1745 30.4499C36.1745 30.896 35.8141 31.2579 35.3667 31.2579Z" fill="currentColor"/>
<path fill-rule="evenodd" clip-rule="evenodd" d="M35.3683 20.9734H21.7568C21.3107 20.9734 20.9485 20.6115 20.9485 20.1654C20.9487 19.7179 21.3104 19.3577 21.7564 19.3577H35.3683C35.8143 19.3577 36.176 19.7179 36.176 20.1654C36.176 20.6115 35.8141 20.9734 35.3683 20.9734Z" fill="currentColor"/>
<path fill-rule="evenodd" clip-rule="evenodd" d="M35.3683 26.1147H21.7568C21.3107 26.1147 20.9485 25.753 20.9485 25.3069C20.9487 24.8609 21.3104 24.4991 21.7564 24.4991H35.3683C35.8143 24.4991 36.176 24.8609 36.176 25.3069C36.176 25.753 35.8141 26.1147 35.3683 26.1147Z" fill="currentColor"/>
<path fill-rule="evenodd" clip-rule="evenodd" d="M44.559 17.6663C44.2023 17.668 43.8757 17.429 43.7781 17.0688L40.7927 5.92419C40.4191 4.529 40.4928 3.23641 41.0061 2.18639C41.5061 1.16642 42.3964 0.439381 43.5138 0.139962C44.6331 -0.159799 45.7673 0.0254174 46.7098 0.658227C47.6792 1.30947 48.3894 2.39329 48.763 3.78848L51.7487 14.9331C51.865 15.3639 51.6089 15.8066 51.178 15.9209C50.7475 16.0372 50.3045 15.7813 50.1884 15.3504L47.2028 4.20585C46.932 3.19271 46.4489 2.43033 45.8076 1.99964C45.2508 1.62426 44.6027 1.52166 43.9329 1.70176C43.2632 1.88015 42.7531 2.29411 42.457 2.89653C42.1188 3.58994 42.0816 4.49196 42.3542 5.5051L45.3399 16.6497C45.4546 17.0806 45.1985 17.5232 44.7676 17.6393C44.6987 17.6577 44.6278 17.6663 44.559 17.6663Z" fill="currentColor"/>
<path fill-rule="evenodd" clip-rule="evenodd" d="M44.2493 16.9425H44.2512H44.2493ZM52.2805 15.7342C52.0214 15.7342 51.7537 15.7678 51.4878 15.8385L44.4584 17.7217C43.189 18.0633 42.3307 19.1523 42.5849 20.1016L43.9014 25.0157L55.6161 21.8754L54.3003 16.9611C54.0999 16.2122 53.2532 15.7342 52.2805 15.7342ZM43.3307 26.8115C43.189 26.8115 43.0494 26.7762 42.9265 26.7038C42.7399 26.5961 42.605 26.421 42.5495 26.2141L41.0231 20.5189C40.5354 18.6929 41.8881 16.739 44.0407 16.1617L51.0687 14.2784C53.223 13.7011 55.372 14.7176 55.8618 16.5437L57.3867 22.2373C57.5026 22.668 57.2469 23.1123 56.816 23.2267L43.5393 26.7846C43.4703 26.803 43.3993 26.8115 43.3307 26.8115Z" fill="currentColor"/>
<path fill-rule="evenodd" clip-rule="evenodd" d="M58.4167 56.563C58.1674 56.563 57.9284 56.4484 57.7736 56.2448L53.5947 50.7533C53.536 50.6743 53.4921 50.5867 53.4634 50.4942L45.9827 25.3153C45.8549 24.8878 46.0988 24.4385 46.5263 24.3122C46.9556 24.1843 47.4049 24.4285 47.531 24.8559L54.9701 49.8916L57.8646 53.6968L58.4689 48.9542L52.3933 23.5532C52.2905 23.119 52.558 22.6831 52.9906 22.5788C53.425 22.4761 53.8607 22.7437 53.965 23.178L60.0746 48.7219C60.098 48.8163 60.1027 48.9155 60.091 49.0114L59.2176 55.8578C59.1755 56.1826 58.9416 56.4518 58.6251 56.536C58.5563 56.5544 58.4855 56.563 58.4167 56.563Z" fill="currentColor"/>
<path fill-rule="evenodd" clip-rule="evenodd" d="M58.4083 63.7291C58.3644 63.8165 58.3188 63.9058 58.2734 63.9966C57.4151 65.7014 55.6293 69.2491 55.8111 70.2252H55.8115C56.0455 71.4773 57.1408 72.3844 58.4165 72.3844C59.7075 72.3844 60.8045 71.464 61.0266 70.195C61.1734 69.3518 59.4313 65.8092 58.5949 64.106C58.531 63.9782 58.4685 63.8518 58.4083 63.7291ZM58.4166 74.0002C56.3635 74.0002 54.6012 72.5376 54.2241 70.5231H54.2244C53.9615 69.1212 55.1935 66.5227 56.8311 63.2696C57.1879 62.561 57.4958 61.9468 57.6759 61.5377C57.8055 61.245 58.095 61.0548 58.4165 61.0548C58.7362 61.0548 59.0272 61.245 59.1553 61.5377C59.3572 61.9973 59.6753 62.6436 60.0438 63.394C61.6898 66.7416 62.8391 69.2088 62.6187 70.4727C62.2604 72.5174 60.4931 74.0002 58.4166 74.0002Z" fill="currentColor"/>
</g>
<defs>
<clipPath id="clip0_1_472">
<rect width="74" height="74" fill="white"/>
</clipPath>
</defs>
</svg>
