<svg width="100%" height="100%" viewBox="0 0 74 74" fill="none" xmlns="http://www.w3.org/2000/svg">
<path d="M73.1328 42.5826H0.867188C0.637195 42.5826 0.416623 42.4913 0.253993 42.3286C0.0913641 42.166 0 41.9454 0 41.7155C0 41.4855 0.0913641 41.2649 0.253993 41.1023C0.416623 40.9396 0.637195 40.8483 0.867188 40.8483H73.1328C73.3628 40.8483 73.5834 40.9396 73.746 41.1023C73.9086 41.2649 74 41.4855 74 41.7155C74 41.9454 73.9086 42.166 73.746 42.3286C73.5834 42.4913 73.3628 42.5826 73.1328 42.5826Z" fill="currentColor"/>
<path d="M73.1328 51.8326H0.867188C0.637195 51.8326 0.416623 51.7413 0.253993 51.5786C0.0913641 51.416 0 51.1954 0 50.9655C0 50.7355 0.0913641 50.5149 0.253993 50.3523C0.416623 50.1896 0.637195 50.0983 0.867188 50.0983H73.1328C73.3628 50.0983 73.5834 50.1896 73.746 50.3523C73.9086 50.5149 74 50.7355 74 50.9655C74 51.1954 73.9086 51.416 73.746 51.5786C73.5834 51.7413 73.3628 51.8326 73.1328 51.8326Z" fill="currentColor"/>
<path d="M9.23609 64.1381C8.55003 64.1381 7.87938 63.9346 7.30895 63.5535C6.73852 63.1723 6.29392 62.6306 6.03138 61.9967C5.76884 61.3629 5.70014 60.6655 5.83399 59.9926C5.96783 59.3197 6.2982 58.7017 6.78331 58.2165C7.26842 57.7314 7.88649 57.4011 8.55937 57.2672C9.23224 57.1334 9.92969 57.2021 10.5635 57.4646C11.1973 57.7271 11.7391 58.1717 12.1202 58.7422C12.5014 59.3126 12.7048 59.9833 12.7048 60.6693C12.704 61.589 12.3383 62.4708 11.6879 63.1212C11.0376 63.7715 10.1558 64.1372 9.23609 64.1381ZM9.23609 58.9367C8.89306 58.9367 8.55773 59.0384 8.27252 59.229C7.9873 59.4195 7.765 59.6904 7.63373 60.0073C7.50246 60.3242 7.46811 60.673 7.53504 61.0094C7.60196 61.3458 7.76714 61.6549 8.0097 61.8974C8.25225 62.14 8.56129 62.3052 8.89773 62.3721C9.23416 62.439 9.58289 62.4047 9.8998 62.2734C10.2167 62.1421 10.4876 61.9198 10.6782 61.6346C10.8687 61.3494 10.9705 61.0141 10.9705 60.6711C10.9705 60.2111 10.7877 59.7699 10.4625 59.4447C10.1372 59.1194 9.69607 58.9367 9.23609 58.9367Z" fill="currentColor"/>
<path d="M18.5 72.9334C17.8139 72.9334 17.1433 72.7299 16.5729 72.3488C16.0024 71.9676 15.5578 71.4259 15.2953 70.792C15.0328 70.1582 14.9641 69.4608 15.0979 68.7879C15.2317 68.115 15.5621 67.4969 16.0472 67.0118C16.5323 66.5267 17.1504 66.1963 17.8233 66.0625C18.4962 65.9287 19.1936 65.9974 19.8274 66.2599C20.4613 66.5224 21.003 66.967 21.3842 67.5375C21.7653 68.1079 21.9688 68.7785 21.9688 69.4646C21.9679 70.3843 21.6022 71.2661 20.9518 71.9164C20.3015 72.5668 19.4197 72.9325 18.5 72.9334ZM18.5 67.7302C18.157 67.7302 17.8217 67.8319 17.5364 68.0225C17.2512 68.2131 17.0289 68.484 16.8976 68.8009C16.7664 69.1178 16.732 69.4665 16.799 69.803C16.8659 70.1394 17.0311 70.4484 17.2736 70.691C17.5162 70.9335 17.8252 71.0987 18.1616 71.1657C18.4981 71.2326 18.8468 71.1982 19.1637 71.067C19.4806 70.9357 19.7515 70.7134 19.9421 70.4282C20.1327 70.143 20.2344 69.8076 20.2344 69.4646C20.234 69.0049 20.0511 68.5641 19.7259 68.2391C19.4007 67.9142 18.9597 67.7317 18.5 67.7317V67.7302Z" fill="currentColor"/>
<path d="M37 72.9334C36.3139 72.9334 35.6433 72.7299 35.0729 72.3488C34.5024 71.9676 34.0578 71.4259 33.7953 70.792C33.5328 70.1582 33.4641 69.4608 33.5979 68.7879C33.7317 68.115 34.0621 67.4969 34.5472 67.0118C35.0323 66.5267 35.6504 66.1963 36.3233 66.0625C36.9962 65.9287 37.6936 65.9974 38.3274 66.2599C38.9613 66.5224 39.503 66.967 39.8842 67.5375C40.2653 68.1079 40.4688 68.7785 40.4688 69.4646C40.4679 70.3843 40.1022 71.2661 39.4519 71.9164C38.8015 72.5668 37.9197 72.9325 37 72.9334ZM37 67.7302C36.657 67.7302 36.3217 67.8319 36.0364 68.0225C35.7512 68.2131 35.5289 68.484 35.3976 68.8009C35.2664 69.1178 35.232 69.4665 35.299 69.803C35.3659 70.1394 35.5311 70.4484 35.7736 70.691C36.0162 70.9335 36.3252 71.0987 36.6616 71.1657C36.9981 71.2326 37.3468 71.1982 37.6637 71.067C37.9806 70.9357 38.2515 70.7134 38.4421 70.4282C38.6327 70.143 38.7344 69.8076 38.7344 69.4646C38.734 69.0049 38.5511 68.5641 38.2259 68.2391C37.9007 67.9142 37.4597 67.7317 37 67.7317V67.7302Z" fill="currentColor"/>
<path d="M55.5 72.9334C54.8139 72.9334 54.1433 72.7299 53.5729 72.3488C53.0024 71.9676 52.5578 71.4259 52.2953 70.792C52.0328 70.1582 51.9641 69.4608 52.0979 68.7879C52.2317 68.115 52.5621 67.4969 53.0472 67.0118C53.5323 66.5267 54.1504 66.1963 54.8233 66.0625C55.4962 65.9287 56.1936 65.9974 56.8274 66.2599C57.4613 66.5224 58.003 66.967 58.3842 67.5375C58.7653 68.1079 58.9688 68.7785 58.9688 69.4646C58.9679 70.3843 58.6022 71.2661 57.9518 71.9164C57.3015 72.5668 56.4197 72.9325 55.5 72.9334ZM55.5 67.7302C55.157 67.7302 54.8217 67.8319 54.5364 68.0225C54.2512 68.2131 54.0289 68.484 53.8976 68.8009C53.7664 69.1178 53.732 69.4665 53.799 69.803C53.8659 70.1394 54.0311 70.4484 54.2736 70.691C54.5162 70.9335 54.8252 71.0987 55.1616 71.1657C55.4981 71.2326 55.8468 71.1982 56.1637 71.067C56.4806 70.9357 56.7515 70.7134 56.9421 70.4282C57.1327 70.143 57.2344 69.8076 57.2344 69.4646C57.234 69.0049 57.0511 68.5641 56.7259 68.2391C56.4007 67.9142 55.9597 67.7317 55.5 67.7317V67.7302Z" fill="currentColor"/>
<path d="M27.75 64.1381C27.0639 64.1381 26.3933 63.9346 25.8229 63.5535C25.2524 63.1723 24.8078 62.6306 24.5453 61.9967C24.2828 61.3629 24.2141 60.6655 24.3479 59.9926C24.4817 59.3197 24.8121 58.7017 25.2972 58.2165C25.7823 57.7314 26.4004 57.4011 27.0733 57.2672C27.7462 57.1334 28.4436 57.2021 29.0774 57.4646C29.7113 57.7271 30.253 58.1717 30.6342 58.7422C31.0153 59.3126 31.2188 59.9833 31.2188 60.6693C31.2179 61.589 30.8522 62.4708 30.2018 63.1212C29.5515 63.7715 28.6697 64.1372 27.75 64.1381ZM27.75 58.9367C27.407 58.9367 27.0717 59.0384 26.7864 59.229C26.5012 59.4195 26.2789 59.6904 26.1476 60.0073C26.0164 60.3242 25.982 60.673 26.049 61.0094C26.1159 61.3458 26.2811 61.6549 26.5236 61.8974C26.7662 62.14 27.0752 62.3052 27.4116 62.3721C27.7481 62.439 28.0968 62.4047 28.4137 62.2734C28.7306 62.1421 29.0015 61.9198 29.1921 61.6346C29.3827 61.3494 29.4844 61.0141 29.4844 60.6711C29.4844 60.2111 29.3016 59.7699 28.9764 59.4447C28.6511 59.1194 28.21 58.9367 27.75 58.9367Z" fill="currentColor"/>
<path d="M46.2639 64.1381C45.5779 64.1381 44.9072 63.9346 44.3368 63.5535C43.7664 63.1723 43.3218 62.6306 43.0592 61.9967C42.7967 61.3629 42.728 60.6655 42.8618 59.9926C42.9957 59.3197 43.326 58.7017 43.8111 58.2165C44.2963 57.7314 44.9143 57.4011 45.5872 57.2672C46.2601 57.1334 46.9575 57.2021 47.5913 57.4646C48.2252 57.7271 48.7669 58.1717 49.1481 58.7422C49.5292 59.3126 49.7327 59.9833 49.7327 60.6693C49.7318 61.589 49.3661 62.4708 48.7158 63.1212C48.0654 63.7715 47.1836 64.1372 46.2639 64.1381ZM46.2639 58.9367C45.9209 58.9367 45.5856 59.0384 45.3004 59.229C45.0151 59.4195 44.7928 59.6904 44.6616 60.0073C44.5303 60.3242 44.4959 60.673 44.5629 61.0094C44.6298 61.3458 44.795 61.6549 45.0375 61.8974C45.2801 62.14 45.5891 62.3052 45.9256 62.3721C46.262 62.439 46.6107 62.4047 46.9276 62.2734C47.2445 62.1421 47.5154 61.9198 47.706 61.6346C47.8966 61.3494 47.9983 61.0141 47.9983 60.6711C47.9983 60.2111 47.8156 59.7699 47.4903 59.4447C47.165 59.1194 46.7239 58.9367 46.2639 58.9367Z" fill="currentColor"/>
<path d="M64.7788 64.1381C64.0928 64.1381 63.4221 63.9346 62.8517 63.5535C62.2812 63.1723 61.8366 62.6306 61.5741 61.9967C61.3116 61.3629 61.2429 60.6655 61.3767 59.9926C61.5106 59.3197 61.8409 58.7017 62.326 58.2165C62.8111 57.7314 63.4292 57.4011 64.1021 57.2672C64.775 57.1334 65.4724 57.2021 66.1062 57.4646C66.7401 57.7271 67.2818 58.1717 67.663 58.7422C68.0441 59.3126 68.2476 59.9833 68.2476 60.6693C68.2467 61.589 67.881 62.4708 67.2307 63.1212C66.5803 63.7715 65.6985 64.1372 64.7788 64.1381ZM64.7788 58.9367C64.4358 58.9367 64.1005 59.0384 63.8152 59.229C63.53 59.4195 63.3077 59.6904 63.1765 60.0073C63.0452 60.3242 63.0108 60.673 63.0778 61.0094C63.1447 61.3458 63.3099 61.6549 63.5524 61.8974C63.795 62.14 64.104 62.3052 64.4404 62.3721C64.7769 62.439 65.1256 62.4047 65.4425 62.2734C65.7594 62.1421 66.0303 61.9198 66.2209 61.6346C66.4115 61.3494 66.5132 61.0141 66.5132 60.6711C66.5132 60.2111 66.3305 59.7699 66.0052 59.4447C65.6799 59.1194 65.2388 58.9367 64.7788 58.9367Z" fill="currentColor"/>
<path d="M14.2538 35.9727C14.064 35.9728 13.8794 35.9106 13.7284 35.7958C13.5773 35.6809 13.4681 35.5197 13.4175 35.3368L13.4146 35.3264C13.4117 35.3183 13.4091 35.3087 13.4059 35.2974C13.3019 34.9659 12.4841 32.5568 10.3881 31.4148C9.04658 30.6837 7.41627 30.6054 5.54256 31.1771C5.43296 31.2131 5.31729 31.2269 5.2023 31.2176C5.08731 31.2084 4.97533 31.1763 4.87291 31.1232C4.7705 31.0701 4.6797 30.9971 4.60584 30.9085C4.53198 30.8199 4.47654 30.7174 4.44277 30.6071C4.409 30.4968 4.39758 30.3809 4.40918 30.2661C4.42077 30.1513 4.45515 30.04 4.5103 29.9387C4.56545 29.8374 4.64026 29.7481 4.73035 29.676C4.82044 29.604 4.924 29.5506 5.03497 29.5191C6.90867 28.9456 8.21466 27.9668 8.91708 26.61C10.0918 24.3414 9.24054 21.6895 9.23187 21.6629C9.19706 21.5535 9.18435 21.4382 9.19446 21.3238C9.20456 21.2094 9.2373 21.0982 9.29076 20.9965C9.34421 20.8949 9.41733 20.8048 9.50586 20.7317C9.5944 20.6585 9.69658 20.6037 9.80648 20.5703C9.91638 20.537 10.0318 20.5258 10.1461 20.5374C10.2603 20.549 10.3711 20.5833 10.4721 20.6381C10.573 20.6929 10.6621 20.7672 10.734 20.8567C10.806 20.9462 10.8595 21.0491 10.8914 21.1594C10.8983 21.1843 11.6773 23.8581 13.9208 25.0805C15.262 25.8107 16.8923 25.8899 18.7657 25.3176C18.8752 25.2819 18.9908 25.2684 19.1055 25.2778C19.2203 25.2873 19.3321 25.3195 19.4343 25.3726C19.5364 25.4258 19.627 25.4987 19.7007 25.5872C19.7744 25.6757 19.8298 25.778 19.8635 25.8881C19.8972 25.9982 19.9087 26.114 19.8972 26.2286C19.8857 26.3432 19.8515 26.4543 19.7966 26.5556C19.7417 26.6568 19.6672 26.7461 19.5774 26.8182C19.4876 26.8903 19.3843 26.9438 19.2736 26.9756C17.3999 27.5494 16.0939 28.5282 15.3915 29.885C14.2853 32.0215 14.9758 34.4979 15.0675 34.8014L15.0709 34.813L15.077 34.8321C15.1203 34.9624 15.132 35.1012 15.1112 35.237C15.0904 35.3727 15.0376 35.5016 14.9572 35.613C14.8768 35.7244 14.7711 35.8151 14.6488 35.8776C14.5265 35.9402 14.3911 35.9727 14.2538 35.9727ZM9.1411 29.1711C9.87459 29.297 10.582 29.5443 11.2342 29.9027C11.9423 30.2955 12.58 30.8035 13.1212 31.4058C13.2325 30.6037 13.4767 29.8258 13.8439 29.104C14.1839 28.4419 14.6315 27.8409 15.1686 27.3257C14.4348 27.1996 13.727 26.9522 13.0744 26.5938C12.3661 26.2011 11.7281 25.6931 11.1868 25.0907C11.0755 25.8928 10.8312 26.6708 10.4641 27.3927C10.1245 28.0546 9.67746 28.6556 9.1411 29.1711Z" fill="currentColor"/>
<path d="M52.5663 36.1921C52.4396 36.1922 52.3144 36.1646 52.1995 36.1111C52.0846 36.0576 51.9828 35.9796 51.9013 35.8825C51.8199 35.7855 51.7606 35.6718 51.7278 35.5494C51.695 35.4269 51.6895 35.2988 51.7115 35.174C51.7138 35.1596 52.0006 33.3697 51.0369 32.0409C50.4639 31.2518 49.5355 30.7563 48.2775 30.5684C48.0721 30.5378 47.8846 30.4345 47.749 30.2773C47.6134 30.1201 47.5386 29.9195 47.5383 29.7119C47.5384 29.6687 47.5416 29.6255 47.5479 29.5827C47.5647 29.4701 47.6035 29.3618 47.6622 29.2642C47.7208 29.1665 47.7982 29.0814 47.8897 29.0137C47.9813 28.9459 48.0853 28.8969 48.1958 28.8693C48.3063 28.8418 48.4212 28.8363 48.5339 28.8531C49.7971 29.041 50.8334 28.8366 51.613 28.2435C52.9103 27.2563 53.1615 25.4685 53.1635 25.452C53.1803 25.3394 53.2192 25.2311 53.2779 25.1335C53.3366 25.0359 53.4139 24.9508 53.5055 24.8831C53.5971 24.8153 53.7011 24.7663 53.8116 24.7387C53.9221 24.7112 54.037 24.7057 54.1496 24.7226C54.2623 24.7394 54.3705 24.7783 54.4681 24.837C54.5657 24.8957 54.6508 24.973 54.7186 25.0646C54.7863 25.1561 54.8354 25.2601 54.8629 25.3707C54.8904 25.4812 54.8959 25.5961 54.8791 25.7087C54.8765 25.7229 54.59 27.5124 55.5537 28.8413C56.1264 29.6304 57.0548 30.1259 58.3128 30.3138C58.5182 30.3443 58.7058 30.4476 58.8415 30.6048C58.9772 30.762 59.052 30.9626 59.0523 31.1702C59.0523 31.2135 59.049 31.2567 59.0424 31.2995C59.0085 31.5269 58.8855 31.7316 58.7007 31.8684C58.5158 32.0052 58.2842 32.063 58.0567 32.0291C56.7932 31.8403 55.757 32.0455 54.9774 32.6387C53.6803 33.6258 53.4291 35.4137 53.4271 35.4302C53.4014 35.6404 53.2997 35.8339 53.1411 35.9743C52.9825 36.1147 52.7781 36.1921 52.5663 36.1921ZM51.6893 30.201C51.9751 30.4501 52.231 30.7314 52.4521 31.0393C52.6924 31.3746 52.8913 31.7377 53.0444 32.1207C53.303 31.7992 53.5994 31.5101 53.9272 31.2596C54.2283 31.0296 54.5552 30.8356 54.9013 30.6814C54.6155 30.4324 54.3596 30.1511 54.1385 29.8432C53.8981 29.5079 53.6991 29.1448 53.5459 28.7618C53.2875 29.0833 52.9912 29.3725 52.6634 29.6229C52.3622 29.8527 52.0353 30.0467 51.6893 30.201Z" fill="currentColor"/>
<path d="M36.5086 16.5295C36.3875 16.5296 36.2677 16.5044 36.1569 16.4554C36.0461 16.4064 35.9468 16.3348 35.8654 16.2451C35.784 16.1553 35.7223 16.0496 35.6843 15.9346C35.6463 15.8196 35.6328 15.6979 35.6446 15.5773V15.5692C35.6446 15.56 35.6446 15.5499 35.6469 15.5403C35.6683 15.207 35.7669 12.7818 34.2953 11.0471C33.3535 9.93685 31.9302 9.30611 30.0649 9.17286C29.8462 9.15722 29.6417 9.05939 29.4923 8.89905C29.3428 8.7387 29.2597 8.52773 29.2595 8.30856C29.2595 8.28775 29.2595 8.26693 29.2615 8.24583C29.2691 8.13206 29.2992 8.02092 29.35 7.91883C29.4007 7.81674 29.4713 7.72573 29.5574 7.65106C29.6436 7.57639 29.7437 7.51954 29.852 7.48379C29.9603 7.44805 30.0746 7.43412 30.1883 7.44282C32.0545 7.57694 33.5527 7.15375 34.6433 6.18973C36.3592 4.67129 36.598 2.23333 36.6214 1.92606V1.91045V1.89426C36.6381 1.66484 36.7452 1.45146 36.9193 1.30106C37.0055 1.22658 37.1055 1.16981 37.2136 1.13399C37.3217 1.09816 37.4358 1.08398 37.5494 1.09226C37.663 1.10053 37.7738 1.1311 37.8756 1.18222C37.9774 1.23334 38.0681 1.304 38.1426 1.39018C38.2171 1.47635 38.2738 1.57635 38.3097 1.68447C38.3455 1.79258 38.3597 1.9067 38.3514 2.02029V2.02839C38.3514 2.03764 38.3514 2.04775 38.3491 2.05874C38.3277 2.39232 38.2291 4.81726 39.7007 6.55193C40.6425 7.66222 42.0659 8.29295 43.9312 8.4265C44.1497 8.44213 44.3543 8.53991 44.5037 8.7002C44.6531 8.86049 44.7363 9.07139 44.7365 9.2905C44.7365 9.31132 44.7365 9.33213 44.7345 9.35323C44.7266 9.46691 44.6964 9.57792 44.6455 9.67988C44.5947 9.78184 44.5241 9.87275 44.438 9.94737C44.3519 10.022 44.2519 10.0789 44.1437 10.1147C44.0356 10.1505 43.9214 10.1647 43.8077 10.1562C41.9416 10.0233 40.4434 10.4453 39.3527 11.4093C37.6368 12.9278 37.3981 15.3657 37.3747 15.673V15.6886V15.7048C37.3632 15.927 37.267 16.1363 37.1059 16.2897C36.9448 16.4431 36.7311 16.5289 36.5086 16.5295ZM34.06 8.58779C34.6528 8.95059 35.1832 9.40661 35.6307 9.93829C36.1158 10.5186 36.5035 11.1738 36.7789 11.8782C37.152 11.2202 37.6291 10.627 38.1918 10.1216C38.7107 9.65914 39.3006 9.28327 39.9389 9.00838C39.3461 8.64559 38.8158 8.18957 38.3682 7.65788C37.8832 7.07753 37.4954 6.4224 37.22 5.71798C36.8469 6.37595 36.3698 6.96917 35.8071 7.47461C35.2884 7.93698 34.6987 8.31285 34.0606 8.58779H34.06Z" fill="currentColor"/>
<path d="M14.6688 12.4557H12.915C12.685 12.4557 12.4645 12.3643 12.3018 12.2017C12.1392 12.0391 12.0479 11.8185 12.0479 11.5885C12.0479 11.3585 12.1392 11.1379 12.3018 10.9753C12.4645 10.8127 12.685 10.7213 12.915 10.7213H14.6688C14.8988 10.7213 15.1193 10.8127 15.282 10.9753C15.4446 11.1379 15.536 11.3585 15.536 11.5885C15.536 11.8185 15.4446 12.0391 15.282 12.2017C15.1193 12.3643 14.8988 12.4557 14.6688 12.4557Z" fill="currentColor"/>
<path d="M16.4478 15.9852C16.2178 15.9852 15.9972 15.8938 15.8346 15.7312C15.6719 15.5686 15.5806 15.348 15.5806 15.118V13.3651C15.5806 13.1351 15.6719 12.9145 15.8346 12.7519C15.9972 12.5893 16.2178 12.4979 16.4478 12.4979C16.6777 12.4979 16.8983 12.5893 17.0609 12.7519C17.2236 12.9145 17.3149 13.1351 17.3149 13.3651V15.118C17.3149 15.348 17.2236 15.5686 17.0609 15.7312C16.8983 15.8938 16.6777 15.9852 16.4478 15.9852Z" fill="currentColor"/>
<path d="M19.9769 12.4548H18.2231C17.9932 12.4548 17.7726 12.3635 17.61 12.2008C17.4473 12.0382 17.356 11.8176 17.356 11.5876C17.356 11.3577 17.4473 11.1371 17.61 10.9745C17.7726 10.8118 17.9932 10.7205 18.2231 10.7205H19.9769C20.2069 10.7205 20.4275 10.8118 20.5901 10.9745C20.7527 11.1371 20.8441 11.3577 20.8441 11.5876C20.8441 11.8176 20.7527 12.0382 20.5901 12.2008C20.4275 12.3635 20.2069 12.4548 19.9769 12.4548Z" fill="currentColor"/>
<path d="M16.4456 10.678C16.2156 10.678 15.995 10.5866 15.8324 10.424C15.6697 10.2614 15.5784 10.0408 15.5784 9.81083V8.05737C15.5784 7.82738 15.6697 7.60681 15.8324 7.44418C15.995 7.28155 16.2156 7.19019 16.4456 7.19019C16.6755 7.19019 16.8961 7.28155 17.0588 7.44418C17.2214 7.60681 17.3127 7.82738 17.3127 8.05737V9.81083C17.3127 10.0408 17.2214 10.2614 17.0588 10.424C16.8961 10.5866 16.6755 10.678 16.4456 10.678Z" fill="currentColor"/>
<path d="M62.2665 18.4026H60.5801C60.3501 18.4026 60.1295 18.3112 59.9669 18.1486C59.8043 17.986 59.7129 17.7654 59.7129 17.5354C59.7129 17.3054 59.8043 17.0848 59.9669 16.9222C60.1295 16.7596 60.3501 16.6682 60.5801 16.6682H62.2665C62.4965 16.6682 62.717 16.7596 62.8797 16.9222C63.0423 17.0848 63.1337 17.3054 63.1337 17.5354C63.1337 17.7654 63.0423 17.986 62.8797 18.1486C62.717 18.3112 62.4965 18.4026 62.2665 18.4026Z" fill="currentColor"/>
<path d="M63.9756 21.7976C63.7456 21.7976 63.525 21.7063 63.3624 21.5436C63.1998 21.381 63.1084 21.1604 63.1084 20.9305V19.2438C63.1084 19.0138 63.1998 18.7932 63.3624 18.6306C63.525 18.468 63.7456 18.3766 63.9756 18.3766C64.2056 18.3766 64.4262 18.468 64.5888 18.6306C64.7514 18.7932 64.8428 19.0138 64.8428 19.2438V20.9305C64.8428 21.1604 64.7514 21.381 64.5888 21.5436C64.4262 21.7063 64.2056 21.7976 63.9756 21.7976Z" fill="currentColor"/>
<path d="M67.3708 18.4017H65.6841C65.4541 18.4017 65.2335 18.3104 65.0709 18.1477C64.9083 17.9851 64.8169 17.7645 64.8169 17.5345C64.8169 17.3046 64.9083 17.084 65.0709 16.9214C65.2335 16.7587 65.4541 16.6674 65.6841 16.6674H67.3708C67.6008 16.6674 67.8213 16.7587 67.984 16.9214C68.1466 17.084 68.2379 17.3046 68.2379 17.5345C68.2379 17.7645 68.1466 17.9851 67.984 18.1477C67.8213 18.3104 67.6008 18.4017 67.3708 18.4017Z" fill="currentColor"/>
<path d="M63.9749 16.6933C63.7449 16.6933 63.5243 16.602 63.3617 16.4394C63.199 16.2767 63.1077 16.0562 63.1077 15.8262V14.1398C63.1077 13.9098 63.199 13.6892 63.3617 13.5266C63.5243 13.3639 63.7449 13.2726 63.9749 13.2726C64.2048 13.2726 64.4254 13.3639 64.588 13.5266C64.7507 13.6892 64.842 13.9098 64.842 14.1398V15.8262C64.842 16.0562 64.7507 16.2767 64.588 16.4394C64.4254 16.602 64.2048 16.6933 63.9749 16.6933Z" fill="currentColor"/>
</svg>
