<svg width="100%" height="100%" viewBox="0 0 62 65" fill="none" xmlns="http://www.w3.org/2000/svg">
<path fill-rule="evenodd" clip-rule="evenodd" d="M27.089 1.20104L21.9716 4.91913H15.6463C12.9216 4.91913 10.5068 6.67351 9.66494 9.26476L7.71018 15.2806L2.59296 18.9987C0.388545 20.6001 -0.533752 23.4389 0.308309 26.0301L2.26287 32.046L0.308309 38.0618C-0.533752 40.653 0.388545 43.4916 2.59296 45.0932L7.71018 48.8111L9.66494 54.8269C10.5068 57.4182 12.9216 59.1728 15.6463 59.1728H21.9716L27.089 62.8906C29.2932 64.4922 32.278 64.4922 34.4824 62.8906L39.5996 59.1728H45.9252C48.6496 59.1728 51.0644 57.4182 51.9065 54.8269L53.861 48.8111L58.9785 45.0932C61.1827 43.4916 62.105 40.653 61.2631 38.0618L59.3083 32.046L61.2631 26.0301C62.105 23.4389 61.1827 20.6001 58.9785 18.9987L53.861 15.2806L51.9065 9.26476C51.0644 6.67351 48.6496 4.91913 45.9252 4.91913H39.5996L34.4824 1.20104C32.278 -0.400348 29.2932 -0.400348 27.089 1.20104ZM28.1072 2.60247C29.7044 1.44217 31.867 1.44217 33.4641 2.60247C35.888 4.36351 38.8091 6.48602 38.8091 6.48602C38.9571 6.59348 39.1354 6.65127 39.3184 6.65127H45.9252C47.8993 6.65127 49.6488 7.92257 50.2589 9.80001C51.1848 12.6496 52.3006 16.0836 52.3006 16.0836C52.3571 16.2575 52.4673 16.4091 52.6153 16.5166C52.6153 16.5166 55.5364 18.6389 57.9603 20.4001C59.5574 21.5604 60.2257 23.6172 59.6156 25.4949C58.6897 28.3443 57.5741 31.7782 57.5741 31.7782C57.5176 31.9522 57.5176 32.1397 57.5741 32.3135C57.5741 32.3135 58.6897 35.7476 59.6156 38.597C60.2257 40.4747 59.5574 42.5315 57.9603 43.6918C55.5364 45.4528 52.6153 47.5751 52.6153 47.5751C52.4673 47.6826 52.3571 47.8344 52.3006 48.0083C52.3006 48.0083 51.1848 51.4423 50.2589 54.2917C49.6488 56.1693 47.8993 57.4404 45.9252 57.4404C42.929 57.4404 39.3184 57.4404 39.3184 57.4404C39.1354 57.4404 38.9571 57.4984 38.8091 57.6059C38.8091 57.6059 35.888 59.7282 33.4641 61.4892C31.867 62.6497 29.7044 62.6497 28.1072 61.4892C25.6832 59.7282 22.7621 57.6059 22.7621 57.6059C22.6141 57.4984 22.436 57.4404 22.2531 57.4404C22.2531 57.4404 18.6424 57.4404 15.6463 57.4404C13.672 57.4404 11.9224 56.1693 11.3123 54.2917C10.3864 51.4423 9.27063 48.0083 9.27063 48.0083C9.21429 47.8344 9.10413 47.6826 8.95612 47.5751C8.95612 47.5751 6.035 45.4528 3.61108 43.6918C2.01384 42.5315 1.34556 40.4747 1.95564 38.597C2.88147 35.7476 3.99729 32.3135 3.99729 32.3135C4.05383 32.1397 4.05383 31.9522 3.99729 31.7782C3.99729 31.7782 2.88147 28.3443 1.95564 25.4949C1.34556 23.6172 2.01384 21.5604 3.61108 20.4001C6.035 18.6389 8.95612 16.5166 8.95612 16.5166C9.10413 16.4091 9.21429 16.2575 9.27063 16.0836C9.27063 16.0836 10.3864 12.6496 11.3123 9.80001C11.9224 7.92257 13.672 6.65127 15.6463 6.65127H22.2531C22.436 6.65127 22.6141 6.59348 22.7621 6.48602L28.1072 2.60247Z" fill="currentColor"/>
<path fill-rule="evenodd" clip-rule="evenodd" d="M22.1037 24.1807C23.5363 28.5076 27.7401 31.4257 32.7852 30.1323C36.5731 29.1614 39.0688 26.4957 40.6808 23.6232C43.0284 19.4399 43.4791 14.8467 43.4791 14.8467C43.5102 14.5306 43.3658 14.2227 43.1026 14.0448C42.8395 13.8667 42.5 13.8469 42.2179 13.9932C39.2006 15.5601 36.6613 15.2215 34.1856 14.8752C32.3425 14.617 30.5286 14.3537 28.6063 14.6665C25.47 15.1768 23.4041 17.4226 22.4641 19.7594C21.8176 21.3666 21.7168 23.0125 22.1034 24.1807H22.1037ZM23.7479 23.6363C23.465 22.7812 23.598 21.582 24.0711 20.4059C24.8107 18.5675 26.4171 16.7776 28.8844 16.3762C31.0951 16.0164 33.1475 16.5234 35.2944 16.7655C37.2473 16.9859 39.2683 17.0141 41.5135 16.1945C41.2031 17.7729 40.5319 20.3487 39.1702 22.7755C37.7727 25.2656 35.639 27.6126 32.3551 28.4544C28.2854 29.4977 24.9036 27.1266 23.7481 23.6363H23.7479Z" fill="currentColor"/>
<path fill-rule="evenodd" clip-rule="evenodd" d="M15.3292 23.0304C18.1696 24.1292 20.7827 24.6476 23.1528 24.77C28.9957 25.0725 33.3752 22.973 36.0758 21.1268C36.4703 20.857 36.5717 20.3176 36.3019 19.923C36.0321 19.5283 35.4927 19.4271 35.0982 19.6969C32.6204 21.3908 28.6028 23.3175 23.2422 23.0402C21.0342 22.9261 18.6005 22.4384 15.954 21.4149C15.5083 21.2424 15.0063 21.4644 14.8338 21.9102C14.6615 22.3561 14.8833 22.8581 15.3292 23.0304Z" fill="currentColor"/>
<path fill-rule="evenodd" clip-rule="evenodd" d="M11.5144 39.5244L14.0142 38.2219V47.5814C14.0142 48.0595 14.4023 48.4476 14.8802 48.4476C15.3583 48.4476 15.7464 48.0595 15.7464 47.5814V36.7941C15.7464 36.4914 15.5884 36.2106 15.3294 36.0536C15.0706 35.8965 14.7486 35.8861 14.4801 36.026L10.714 37.988C10.2901 38.209 10.1253 38.7324 10.346 39.1562C10.567 39.5803 11.0904 39.7451 11.5144 39.5244Z" fill="currentColor"/>
<path fill-rule="evenodd" clip-rule="evenodd" d="M48.3572 36.7306L40.5168 46.5741C40.2191 46.948 40.2808 47.4935 40.6548 47.7913C41.0285 48.089 41.574 48.0273 41.8718 47.6533L49.7121 37.8098C50.01 37.4359 49.9482 36.8907 49.5743 36.5928C49.2003 36.2949 48.6549 36.3569 48.3572 36.7306Z" fill="currentColor"/>
<path fill-rule="evenodd" clip-rule="evenodd" d="M41.7808 35.8732C40.6893 35.8732 39.803 36.7595 39.803 37.851C39.803 38.9425 40.6893 39.8288 41.7808 39.8288C42.8723 39.8288 43.7587 38.9425 43.7587 37.851C43.7587 36.7595 42.8723 35.8732 41.7808 35.8732ZM41.7808 37.6055C41.9163 37.6055 42.0263 37.7155 42.0263 37.851C42.0263 37.9865 41.9163 38.0965 41.7808 38.0965C41.6453 38.0965 41.5353 37.9865 41.5353 37.851C41.5353 37.7155 41.6453 37.6055 41.7808 37.6055Z" fill="currentColor"/>
<path fill-rule="evenodd" clip-rule="evenodd" d="M48.2606 44.3759C47.1691 44.3759 46.2827 45.262 46.2827 46.3535C46.2827 47.4452 47.1691 48.3313 48.2606 48.3313C49.3521 48.3313 50.2384 47.4452 50.2384 46.3535C50.2384 45.262 49.3521 44.3759 48.2606 44.3759ZM48.2606 46.108C48.3961 46.108 48.506 46.218 48.506 46.3535C48.506 46.489 48.3961 46.5992 48.2606 46.5992C48.125 46.5992 48.0151 46.489 48.0151 46.3535C48.0151 46.218 48.125 46.108 48.2606 46.108Z" fill="currentColor"/>
<path fill-rule="evenodd" clip-rule="evenodd" d="M26.262 44.4117V39.9638C26.262 37.7348 24.455 35.9279 22.2261 35.9279C22.2261 35.9279 22.2261 35.9279 22.2259 35.9279C19.9972 35.9279 18.1902 37.7348 18.1902 39.9638V44.4117C18.1902 46.6406 19.9972 48.4476 22.2259 48.4476H22.2261C24.455 48.4476 26.262 46.6406 26.262 44.4117ZM24.5297 39.9638V44.4117C24.5297 45.684 23.4984 46.7154 22.2261 46.7154H22.2259C20.9538 46.7154 19.9223 45.684 19.9223 44.4119C19.9223 44.4117 19.9223 39.9638 19.9223 39.9638C19.9223 38.6914 20.9538 37.6602 22.2259 37.6602H22.2261C23.4984 37.6602 24.5297 38.6914 24.5297 39.9638Z" fill="currentColor"/>
<path fill-rule="evenodd" clip-rule="evenodd" d="M36.7771 44.4117V39.9638C36.7771 37.7348 34.9704 35.9279 32.7414 35.9279H32.7412C30.5123 35.9279 28.7055 37.7348 28.7053 39.9638V44.4117C28.7055 46.6406 30.5123 48.4476 32.7412 48.4476H32.7414C34.9704 48.4476 36.7771 46.6406 36.7771 44.4117ZM35.045 39.9638V44.4117C35.045 45.684 34.0136 46.7154 32.7414 46.7154H32.7412C31.4691 46.7154 30.4377 45.684 30.4377 44.4119C30.4377 44.4117 30.4377 39.9638 30.4377 39.9638C30.4377 38.6914 31.4691 37.6602 32.7412 37.6602H32.7414C34.0136 37.6602 35.045 38.6914 35.045 39.9638Z" fill="currentColor"/>
</svg>
