<svg width="100%" height="100%" viewBox="0 0 19 18" fill="none" xmlns="http://www.w3.org/2000/svg">
<path d="M9.2 2.825L10.925 6.3125L11.2125 6.9375L11.8375 7.03125L15.6875 7.5875L12.95 10.275L12.4812 10.7312L12.5938 11.3562L13.25 15.1875L9.80625 13.3813L9.2 13.125L8.61875 13.4312L5.175 15.2125L5.8 11.3812L5.9125 10.7562L5.45 10.275L2.6875 7.55625L6.5375 7L7.1625 6.90625L7.45 6.28125L9.2 2.825ZM9.2 0L6.35625 5.7625L0 6.68125L4.6 11.1688L3.5125 17.5L9.2 14.5125L14.8875 17.5L13.8 11.1688L18.4 6.6875L12.0437 5.7625L9.2 0Z" fill="currentColor"/>
</svg>
