<svg width="100%" height="100%" viewBox="0 0 27 24" fill="none" xmlns="http://www.w3.org/2000/svg">
<path d="M26.7574 3.46255C26.7009 3.32645 26.6055 3.21 26.4833 3.12775C26.361 3.04549 26.2172 3.00108 26.0699 3.00005H22.1199C21.6316 2.10334 20.9134 1.35279 20.0391 0.825543C19.1648 0.298299 18.1658 0.0133758 17.1449 5.48866e-05C15.6109 -0.00661393 14.1368 0.594663 13.0451 1.67229C11.9534 2.74992 11.3331 4.21614 11.3199 5.75005V6.83755C6.01986 5.57505 1.64486 1.26255 1.59486 1.22505C1.49849 1.12992 1.37817 1.06266 1.24665 1.0304C1.11514 0.998132 0.977346 1.00208 0.847895 1.04181C0.718443 1.08154 0.602163 1.15558 0.511396 1.25607C0.420628 1.35656 0.35876 1.47974 0.332356 1.61256C-0.755144 7.56255 1.03236 11.5376 2.71986 13.8251C3.61486 15.0499 4.71429 16.1112 5.96986 16.9626C4.03236 19.3126 0.844856 20.5376 0.807356 20.5501C0.700858 20.5893 0.604846 20.6525 0.526795 20.7349C0.448744 20.8173 0.39076 20.9166 0.357356 21.0251C0.321886 21.1309 0.311328 21.2435 0.326505 21.354C0.341682 21.4646 0.382184 21.5702 0.444856 21.6626C0.569856 21.8501 1.79486 23.5001 6.06986 23.5001C14.7824 23.5001 22.0699 16.7626 22.7699 8.11256L26.5949 4.27505C26.7033 4.17347 26.7772 4.04054 26.8064 3.89486C26.8355 3.74917 26.8184 3.59802 26.7574 3.46255ZM21.5074 7.25005C21.3773 7.37977 21.3014 7.554 21.2949 7.73756C20.7824 15.7376 14.0949 22.0001 6.06986 22.0001C4.33236 22.0001 3.21986 21.7001 2.55736 21.4001C3.96986 20.6876 6.28236 19.2876 7.69486 17.1626C7.75113 17.0745 7.789 16.9759 7.80618 16.8728C7.82337 16.7697 7.81952 16.6641 7.79486 16.5626C7.76821 16.4586 7.71992 16.3615 7.65314 16.2774C7.58637 16.1934 7.50261 16.1245 7.40736 16.0751C7.38236 16.0751 5.50736 15.1001 3.88236 12.8751C1.94486 10.2251 1.18236 6.98755 1.60736 3.25005C3.43236 4.80005 7.36986 7.72506 11.9449 8.48756C12.0525 8.50801 12.1634 8.5042 12.2694 8.47641C12.3755 8.44863 12.474 8.39756 12.5578 8.32692C12.6416 8.25628 12.7086 8.16786 12.7539 8.06807C12.7993 7.96828 12.8218 7.85964 12.8199 7.75005V5.75005C12.8298 4.61728 13.2876 3.53446 14.0933 2.73814C14.8989 1.94181 15.987 1.49671 17.1199 1.50005C17.9384 1.51187 18.7363 1.75845 19.4188 2.21049C20.1013 2.66253 20.6396 3.30101 20.9699 4.05006C21.0269 4.1848 21.1227 4.29954 21.2451 4.37967C21.3676 4.4598 21.5111 4.50171 21.6574 4.50005H24.2574L21.5074 7.25005Z" fill="currentColor"/>
</svg>
