<svg width="100%" height="100%" viewBox="0 0 52 52" fill="none" xmlns="http://www.w3.org/2000/svg">
<path d="M3.18332 8.84291L2.49577 12.7446C2.43907 13.0661 2.57098 13.3918 2.83627 13.5851C3.10155 13.7785 3.45433 13.8062 3.74684 13.6564L7.3667 11.8042L10.9866 13.6564C11.1118 13.7205 11.2481 13.7521 11.3838 13.7521C11.5651 13.7521 11.7455 13.6957 11.8971 13.5852C12.1624 13.3918 12.2943 13.0662 12.2376 12.7446L11.5501 8.84292L14.4658 6.07681C14.7056 5.84939 14.7933 5.50616 14.6918 5.19292C14.5904 4.87963 14.3175 4.65133 13.9891 4.60484L9.94607 4.03308L8.14096 0.473352C7.9938 0.183139 7.69424 0 7.3667 0C7.03915 0 6.73961 0.183139 6.59244 0.473352L4.78732 4.03308L0.744337 4.60484C0.415896 4.65131 0.142999 4.87962 0.0415463 5.19292C-0.0599064 5.50616 0.0278435 5.84941 0.267626 6.07681L3.18332 8.84291ZM5.48042 5.67145C5.76136 5.63174 6.00484 5.45814 6.13233 5.20671L7.36668 2.77257L8.60104 5.20671C8.72852 5.45814 8.97201 5.63174 9.25294 5.67145L11.9792 6.05698L10.0176 7.91789C9.80868 8.11609 9.7132 8.40452 9.76297 8.68696L10.2296 11.3348L7.76405 10.0733C7.63942 10.0095 7.50305 9.97757 7.36668 9.97757C7.23032 9.97757 7.09395 10.0095 6.96932 10.0733L4.50378 11.3348L4.97039 8.68696C5.02017 8.40452 4.92469 8.11609 4.71575 7.91789L2.75421 6.05698L5.48042 5.67145Z" fill="currentColor"/>
<path d="M19.6501 8.84291L18.9626 12.7446C18.9059 13.0661 19.0378 13.3918 19.3031 13.5851C19.5684 13.7785 19.9212 13.8062 20.2137 13.6564L23.8335 11.8042L27.4534 13.6564C27.5786 13.7205 27.7149 13.7521 27.8506 13.7521C28.032 13.7521 28.2123 13.6957 28.3639 13.5852C28.6292 13.3918 28.7611 13.0662 28.7044 12.7446L28.0169 8.84292L30.9326 6.07681C31.1724 5.84939 31.2601 5.50616 31.1587 5.19292C31.0572 4.87963 30.7843 4.65133 30.4559 4.60484L26.4129 4.03308L24.6078 0.473352C24.4606 0.183139 24.1611 0 23.8335 0C23.506 0 23.2064 0.183139 23.0593 0.473352L21.2541 4.03307L17.2111 4.60482C16.8827 4.6513 16.6098 4.8796 16.5083 5.1929C16.4069 5.50614 16.4946 5.84939 16.7344 6.0768L19.6501 8.84291ZM21.9472 5.67145C22.2282 5.63174 22.4717 5.45814 22.5991 5.20671L23.8335 2.77257L25.0679 5.20671C25.1953 5.45814 25.4388 5.63174 25.7198 5.67145L28.446 6.05698L26.4844 7.91788C26.2755 8.11607 26.18 8.4045 26.2298 8.68695L26.6964 11.3348L24.2309 10.0732C24.1062 10.0095 23.9699 9.97755 23.8335 9.97755C23.6971 9.97755 23.5608 10.0095 23.4361 10.0732L20.9706 11.3348L21.4372 8.68695C21.487 8.4045 21.3915 8.11607 21.1826 7.91788L19.221 6.05697L21.9472 5.67145Z" fill="currentColor"/>
<path d="M40.2133 44.374C39.7955 44.1425 39.2675 44.2906 39.034 44.7051L35.8918 50.2813H21.667C21.1883 50.2813 20.8003 50.6661 20.8003 51.1408C20.8003 51.6156 21.1883 52.0003 21.667 52.0003H36.4003C36.7142 52.0003 37.0037 51.8319 37.1568 51.5601L40.5471 45.5436C40.7805 45.1292 40.6311 44.6056 40.2133 44.374Z" fill="currentColor"/>
<path d="M12.1333 15.9004C8.0713 15.9004 4.7666 19.1778 4.7666 23.2062C4.7666 27.2346 8.0713 30.512 12.1333 30.512C16.1952 30.512 19.4999 27.2346 19.4999 23.2062C19.4999 19.1778 16.1952 15.9004 12.1333 15.9004ZM12.1333 28.793C9.02705 28.793 6.49994 26.2867 6.49994 23.2062C6.49994 20.1256 9.02705 17.6194 12.1333 17.6194C15.2395 17.6194 17.7666 20.1256 17.7666 23.2062C17.7666 26.2867 15.2395 28.793 12.1333 28.793Z" fill="currentColor"/>
<path d="M16.9 44.2645H6.5C6.02133 44.2645 5.63334 44.6493 5.63334 45.124C5.63334 45.5987 6.02133 45.9835 6.5 45.9835H16.9C18.0947 45.9835 19.0667 46.9475 19.0667 48.1323C19.0667 49.3171 18.0947 50.281 16.9 50.281H3.9C2.70532 50.281 1.73333 49.3171 1.73333 48.1323V36.0992C1.73333 34.9144 2.70532 33.9505 3.9 33.9505H21.2333C21.712 33.9505 22.1 33.5657 22.1 33.0909C22.1 32.6162 21.712 32.2314 21.2333 32.2314H3.9C1.74953 32.2314 0 33.9665 0 36.0992V48.1323C0 50.265 1.74953 52 3.9 52H16.9C19.0505 52 20.8 50.265 20.8 48.1323C20.8 45.9996 19.0505 44.2645 16.9 44.2645Z" fill="currentColor"/>
<path d="M39.4336 21.0579C43.4955 21.0579 46.8002 17.7805 46.8002 13.7521C46.8002 9.72367 43.4955 6.44629 39.4336 6.44629C35.3716 6.44629 32.0669 9.72367 32.0669 13.7521C32.0669 17.7805 35.3716 21.0579 39.4336 21.0579ZM39.4336 8.16531C42.5398 8.16531 45.0669 10.6715 45.0669 13.7521C45.0669 16.8326 42.5398 19.3389 39.4336 19.3389C36.3273 19.3389 33.8002 16.8326 33.8002 13.7521C33.8002 10.6715 36.3273 8.16531 39.4336 8.16531Z" fill="currentColor"/>
<path d="M48.0997 22.7773H30.3331C28.1826 22.7773 26.4331 24.5124 26.4331 26.6451V33.0914C26.4331 33.5661 26.8211 33.9509 27.2998 33.9509C27.7784 33.9509 28.1664 33.5661 28.1664 33.0914V26.6451C28.1664 25.4603 29.1384 24.4964 30.3331 24.4964H48.0997C49.2944 24.4964 50.2664 25.4603 50.2664 26.6451V39.5377C50.2664 40.7225 49.2944 41.6864 48.0997 41.6864H36.3997C35.2051 41.6864 34.2331 40.7225 34.2331 39.5377C34.2331 38.3529 35.2051 37.3889 36.3997 37.3889H44.6331C45.1117 37.3889 45.4997 37.0041 45.4997 36.5294V30.5129C45.4997 30.0382 45.1117 29.6534 44.6331 29.6534C44.1544 29.6534 43.7664 30.0382 43.7664 30.5129V35.6699H22.9664C22.6623 35.6699 22.3804 35.828 22.2237 36.0865L18.315 42.5328C18.0683 42.9395 18.2009 43.4677 18.6111 43.7123C18.7509 43.7956 18.9049 43.8353 19.0569 43.8353C19.351 43.8353 19.6378 43.6868 19.8004 43.4186L23.4565 37.3889H33.1586C32.7426 38.0039 32.4997 38.7431 32.4997 39.5377C32.4997 41.6704 34.2492 43.4054 36.3997 43.4054H46.3664V51.141C46.3664 51.6157 46.7544 52.0005 47.2331 52.0005C47.7117 52.0005 48.0997 51.6157 48.0997 51.141V43.4054C50.2502 43.4054 51.9997 41.6704 51.9997 39.5377V26.6451C51.9997 24.5124 50.2502 22.7773 48.0997 22.7773Z" fill="currentColor"/>
</svg>
