<svg width="100%" height="100%" viewBox="0 0 52 52" fill="none" xmlns="http://www.w3.org/2000/svg">
<path d="M44.3378 6.55633C39.4333 2.32841 32.921 0 26 0C19.079 0 12.5667 2.32841 7.6622 6.55633C2.72112 10.8158 0 16.4899 0 22.5333C0 29.1794 3.3488 35.433 9.19371 39.727C9.51279 40.3896 9.86346 41.0417 10.2457 41.6832L8.27905 42.6665C8.13512 42.7385 8.01407 42.8492 7.92947 42.9861C7.84487 43.123 7.80006 43.2807 7.80006 43.4417C7.80006 43.6026 7.84487 43.7604 7.92947 43.8973C8.01407 44.0342 8.13512 44.1448 8.27905 44.2168L10.7121 45.4334C11.2146 45.6859 11.6224 46.0936 11.875 46.5961L13.0915 49.0293C13.1635 49.1732 13.2742 49.2943 13.4111 49.3789C13.548 49.4635 13.7057 49.5083 13.8667 49.5083C14.0276 49.5083 14.1854 49.4635 14.3223 49.3789C14.4592 49.2943 14.5698 49.1732 14.6418 49.0293L15.304 47.7048C18.5792 50.4824 22.3383 52 26 52H38.1333C38.2631 52 38.3912 51.9709 38.5081 51.9147C38.6251 51.8586 38.728 51.777 38.8092 51.6758L46.4324 42.1774C47.2264 41.3696 47.6698 40.2814 47.6667 39.1487V34.995C50.502 31.2991 52 26.9967 52 22.5333C52 16.4899 49.2789 10.8158 44.3378 6.55633ZM1.73333 22.5333C1.73333 11.0642 12.6193 1.73333 26 1.73333C28.9307 1.72811 31.8437 2.18736 34.6306 3.094C34.4067 4.74229 33.1565 7.26039 31.3782 9.5875C29.4215 12.1468 27.2602 13.8667 26 13.8667C20.7429 13.8667 15.9797 15.3659 12.5883 18.0881C8.88875 21.0574 6.93333 25.2917 6.93333 30.3333C6.94657 32.3762 7.26266 34.4058 7.87128 36.3559C3.93759 32.5698 1.73333 27.6734 1.73333 22.5333ZM41.8004 26.992C41.464 27.3229 41.1966 27.7171 41.0134 28.1519C40.8303 28.5867 40.7351 29.0535 40.7333 29.5253V37.836L39.1996 39.8076C38.9812 39.2811 38.6365 38.8166 38.1958 38.4552C37.7551 38.0937 37.2321 37.8465 36.673 37.7354C36.114 37.6243 35.5362 37.6528 34.9908 37.8182C34.4454 37.9837 33.9492 38.2811 33.5462 38.6841C33.5089 38.7212 33.4752 38.7618 33.4454 38.8051L25.5515 50.2569C22.3405 50.1333 19.0407 48.6892 16.149 46.1448C16.3847 45.8472 16.6823 45.6044 17.0212 45.4334L19.4543 44.2168C19.5982 44.1448 19.7193 44.0342 19.8039 43.8973C19.8885 43.7604 19.9333 43.6026 19.9333 43.4417C19.9333 43.2807 19.8885 43.123 19.8039 42.9861C19.7193 42.8492 19.5982 42.7385 19.4543 42.6665L17.0212 41.45C16.5187 41.1974 16.1109 40.7897 15.8584 40.2872L14.6418 37.854C14.5698 37.7101 14.4592 37.5891 14.3223 37.5045C14.1854 37.4199 14.0276 37.3751 13.8667 37.3751C13.7057 37.3751 13.548 37.4199 13.4111 37.5045C13.2742 37.5891 13.1635 37.7101 13.0915 37.854L11.875 40.2871C11.8106 40.4154 11.7356 40.5381 11.6508 40.6539C9.72118 37.3693 8.66667 33.7408 8.66667 30.3333C8.66667 25.8357 10.3978 22.0687 13.6732 19.4399C16.7581 16.9637 21.1358 15.6 26 15.6C30.2921 15.6 34.1443 16.631 37.14 18.5814C40.007 20.4481 41.958 23.1037 42.82 26.2948C42.4414 26.4646 42.0961 26.7008 41.8004 26.992ZM13.8667 46.7037L13.4253 45.8209C13.0044 44.9834 12.3248 44.3039 11.4873 43.883L10.6046 43.4417L11.4873 43.0003C12.3248 42.5794 13.0044 41.8998 13.4253 41.0623L13.8667 40.1796L14.308 41.0625C14.729 41.8999 15.4085 42.5794 16.246 43.0003L17.1287 43.4417L16.246 43.883C15.4085 44.3039 14.7289 44.9835 14.308 45.821L13.8667 46.7037ZM45.9333 39.1487C45.9343 39.4903 45.8675 39.8287 45.7368 40.1442C45.6061 40.4598 45.4141 40.7463 45.1719 40.9872C45.1495 41.0094 45.1284 41.0329 45.1087 41.0576L37.7177 50.2667H27.65L34.8231 39.8609C35.1565 39.5523 35.5977 39.3869 36.0518 39.4003C36.5059 39.4137 36.9366 39.6048 37.2511 39.9325C37.5657 40.2603 37.7391 40.6984 37.7339 41.1527C37.7287 41.607 37.5453 42.041 37.2233 42.3615C37.1913 42.3936 37.1617 42.4282 37.135 42.4649L34.8324 45.6342C34.7026 45.8204 34.6509 46.0501 34.6886 46.2739C34.7263 46.4978 34.8503 46.6979 35.034 46.8313C35.2177 46.9647 35.4463 47.0207 35.6709 46.9873C35.8954 46.9538 36.0978 46.8337 36.2347 46.6526L38.5 43.5346C38.67 43.3573 38.8205 43.1623 38.9491 42.9531L42.2842 38.6649V38.6638C42.4025 38.5123 42.4668 38.3256 42.4667 38.1333V29.5253C42.4678 29.2838 42.5168 29.0449 42.6108 28.8225C42.7048 28.6001 42.8419 28.3984 43.0143 28.2293C43.1741 28.0693 43.3643 27.9429 43.5738 27.8578C43.7833 27.7726 44.0077 27.7303 44.2338 27.7333C44.6869 27.7443 45.118 27.9315 45.4353 28.2551C45.7526 28.5788 45.9313 29.0134 45.9333 29.4667V39.1487ZM44.54 26.0178C43.5916 22.3313 41.3714 19.2686 38.0859 17.1289C35.6475 15.5414 32.7103 14.511 29.4605 14.0871C30.8859 12.9633 32.1095 11.4844 32.7551 10.6395C34.9101 7.82048 35.9519 5.37084 36.2805 3.69536C44.5358 7.01827 50.2667 14.2124 50.2667 22.5333C50.2593 25.8346 49.361 29.0728 47.6667 31.9061V29.4667C47.6622 28.6075 47.3406 27.7802 46.7635 27.1437C46.1864 26.5072 45.3946 26.1062 44.54 26.0178Z" fill="currentColor"/>
<path d="M19.9334 30.3329C20.1633 30.3329 20.3837 30.2416 20.5463 30.079C20.7088 29.9165 20.8001 29.6961 20.8001 29.4662C20.8001 28.7766 20.5262 28.1153 20.0386 27.6277C19.551 27.1401 18.8897 26.8662 18.2001 26.8662C17.5105 26.8662 16.8492 27.1401 16.3616 27.6277C15.874 28.1153 15.6001 28.7766 15.6001 29.4662C15.6001 29.6961 15.6914 29.9165 15.8539 30.079C16.0165 30.2416 16.2369 30.3329 16.4668 30.3329C16.6966 30.3329 16.9171 30.2416 17.0796 30.079C17.2421 29.9165 17.3334 29.6961 17.3334 29.4662C17.3334 29.2364 17.4247 29.0159 17.5873 28.8534C17.7498 28.6909 17.9702 28.5995 18.2001 28.5995C18.43 28.5995 18.6504 28.6909 18.8129 28.8534C18.9755 29.0159 19.0668 29.2364 19.0668 29.4662C19.0668 29.6961 19.1581 29.9165 19.3206 30.079C19.4831 30.2416 19.7036 30.3329 19.9334 30.3329Z" fill="currentColor"/>
<path d="M33.8002 26.8662C33.1109 26.867 32.45 27.1412 31.9626 27.6286C31.4751 28.116 31.201 28.7769 31.2002 29.4662C31.2002 29.6961 31.2915 29.9165 31.454 30.079C31.6166 30.2416 31.837 30.3329 32.0669 30.3329C32.2967 30.3329 32.5172 30.2416 32.6797 30.079C32.8422 29.9165 32.9335 29.6961 32.9335 29.4662C32.9335 29.2364 33.0248 29.0159 33.1874 28.8534C33.3499 28.6909 33.5703 28.5995 33.8002 28.5995C34.03 28.5995 34.2505 28.6909 34.413 28.8534C34.5756 29.0159 34.6669 29.2364 34.6669 29.4662C34.6669 29.6961 34.7582 29.9165 34.9207 30.079C35.0832 30.2416 35.3037 30.3329 35.5335 30.3329C35.7634 30.3329 35.9838 30.2416 36.1464 30.079C36.3089 29.9165 36.4002 29.6961 36.4002 29.4662C36.3994 28.7769 36.1252 28.116 35.6378 27.6286C35.1504 27.1412 34.4895 26.867 33.8002 26.8662Z" fill="currentColor"/>
<path d="M32.4141 35.6059C32.2035 35.5137 31.9649 35.509 31.7509 35.5928C31.5368 35.6765 31.3648 35.8419 31.2727 36.0524C31.2598 36.0819 29.9377 38.9999 26 38.9999C22.1144 38.9999 20.7859 36.1814 20.7255 36.0485C20.632 35.8396 20.4595 35.6761 20.2459 35.5939C20.0322 35.5116 19.7947 35.5173 19.5852 35.6096C19.3756 35.7019 19.2111 35.8733 19.1276 36.0865C19.0441 36.2997 19.0483 36.5372 19.1393 36.7473C19.2105 36.91 20.9413 40.7332 26 40.7332C31.0586 40.7332 32.7894 36.91 32.8606 36.7473C32.9527 36.5367 32.9575 36.2982 32.8737 36.0841C32.79 35.8701 32.6246 35.698 32.4141 35.6059Z" fill="currentColor"/>
<path d="M24.2666 33.7996H27.7332C27.9631 33.7996 28.1835 33.7083 28.3461 33.5458C28.5086 33.3832 28.5999 33.1628 28.5999 32.9329C28.5999 32.7031 28.5086 32.4826 28.3461 32.3201C28.1835 32.1576 27.9631 32.0663 27.7332 32.0663H25.1332V29.4663C25.1332 29.2364 25.0419 29.016 24.8794 28.8534C24.7169 28.6909 24.4964 28.5996 24.2666 28.5996C24.0367 28.5996 23.8163 28.6909 23.6537 28.8534C23.4912 29.016 23.3999 29.2364 23.3999 29.4663V32.9329C23.3999 33.1628 23.4912 33.3832 23.6537 33.5458C23.8163 33.7083 24.0367 33.7996 24.2666 33.7996Z" fill="currentColor"/>
</svg>
