<svg width="100%" height="100%" viewBox="0 0 62 62" fill="none" xmlns="http://www.w3.org/2000/svg">
<path d="M57.8812 38.0409C57.0538 37.9682 56.2237 38.1473 55.4998 38.5549V19.5277C56.6351 19.5277 57.5554 18.6074 57.5554 17.4721V12.3332C57.5554 10.6304 56.1749 9.24993 54.4721 9.24993H44.9539C46.346 7.56242 46.6395 5.2232 45.7074 3.2441C44.7753 1.265 42.7849 0.0014453 40.5973 0H39.5696C37.7265 0.00120442 35.9999 0.902109 34.9446 2.41317C33.8893 0.901989 32.1628 0.00120442 30.3197 0H29.2919C27.1043 0.0014453 25.1139 1.265 24.1818 3.2441C23.2497 5.2232 23.5431 7.56242 24.9353 9.24993H15.4171C13.7143 9.24993 12.3338 10.6304 12.3338 12.3332V17.4721C12.3338 18.6074 13.2541 19.5277 14.3894 19.5277V46.0206C11.8963 47.6593 9.58536 49.5599 7.49618 51.6898C5.50407 53.6806 0.437081 57.7402 0.385773 57.7803C-0.0575733 58.135 -0.129357 58.782 0.225465 59.2253C0.580286 59.6687 1.22718 59.7405 1.67053 59.3856C1.88226 59.2161 6.87722 55.215 8.94919 53.143C16.971 45.1192 22.9197 44.1942 26.6968 44.1942C28.1226 44.1859 29.5056 44.6809 30.6023 45.5919C31.1405 46.0247 31.8122 46.2572 32.5027 46.2497H42.9716C44.1093 46.2185 45.0784 47.0702 45.1936 48.2024C45.2218 48.7651 45.0178 49.3148 44.6291 49.7227C44.2406 50.1308 43.7015 50.3613 43.138 50.3607H31.8325C31.2649 50.3607 30.8048 50.8209 30.8048 51.3884C30.8048 51.9559 31.2649 52.4162 31.8325 52.4162H43.138C44.2651 52.4163 45.3428 51.9535 46.1191 51.1363C46.8953 50.3191 47.302 49.219 47.2439 48.0934C47.2439 48.079 47.2378 48.0657 47.2367 48.0512L56.1783 40.5629C56.5997 40.2099 57.1443 40.039 57.6919 40.088C58.2394 40.137 58.745 40.4017 59.0972 40.824C59.7727 41.646 59.7259 42.8436 58.9882 43.6103L46.1647 56.6629C45.6382 57.2049 44.9238 57.5242 44.1688 57.555H25.601C24.157 57.5543 22.7264 57.8313 21.3871 58.371L18.1199 59.6846C17.5931 59.8963 17.3377 60.4949 17.5495 61.0217C17.7612 61.5485 18.3598 61.8039 18.8866 61.5921L22.1538 60.2776C23.2496 59.8368 24.4198 59.6104 25.601 59.6106H44.2036C45.4998 59.5729 46.7313 59.0358 47.6404 58.1111L60.4618 45.0502C61.5798 43.91 61.9408 42.2275 61.3891 40.729C60.8373 39.2304 59.4718 38.184 57.8812 38.0409ZM55.4999 12.3334V17.4723H41.1111V11.3056H54.4721C55.0397 11.3055 55.4999 11.7657 55.4999 12.3334ZM37.0001 44.1942H32.8889V19.5277H37L37.0001 44.1942ZM38.0278 17.4721H30.8335V11.3055H39.0557V17.4721H38.0278ZM39.5695 2.05558H40.5972C42.5839 2.05558 44.1944 3.66613 44.1944 5.65282C44.1944 7.6395 42.5839 9.25005 40.5972 9.25005H35.9722V5.65282C35.9722 3.66613 37.5828 2.05558 39.5695 2.05558ZM25.6946 5.65282C25.6946 3.66613 27.3051 2.05558 29.2918 2.05558H30.3195C32.3062 2.05558 33.9168 3.66613 33.9168 5.65282V9.25005H29.2918C27.3051 9.25005 25.6946 7.6395 25.6946 5.65282ZM14.3891 12.3334C14.3891 11.7657 14.8493 11.3056 15.4168 11.3056H28.7778V17.4723H14.3891V12.3334ZM26.6966 42.1386C23.1072 42.1302 19.5762 43.0473 16.4446 44.8016V19.5277H30.8335V43.262C29.5783 42.5279 28.1507 42.1402 26.6966 42.1386ZM42.9713 44.1942H39.0555V19.5277H53.4444V40.1766L46.5028 45.9887C45.6857 44.8539 44.3697 44.185 42.9713 44.1942Z" fill="currentColor"/>
<path d="M60.0683 4.28415L56.9849 6.33975C56.5127 6.65483 56.3852 7.29305 56.7002 7.76531C57.0153 8.23757 57.6535 8.365 58.1258 8.05004L61.2091 5.99444C61.5145 5.79065 61.6882 5.43932 61.6645 5.07293C61.6408 4.70642 61.4234 4.3805 61.0941 4.21778C60.7648 4.05494 60.3738 4.08036 60.0683 4.28415Z" fill="currentColor"/>
<path d="M54.4715 6.16624C54.9426 6.16575 55.3529 5.84514 55.4675 5.38818L56.4952 1.27709C56.6129 0.73486 56.2789 0.197202 55.7406 0.0623062C55.2025 -0.07259 54.6544 0.244055 54.5024 0.777617L53.4746 4.8887C53.4084 5.15319 53.45 5.43322 53.5904 5.66712C53.7307 5.9009 53.9582 6.0694 54.2228 6.1354C54.3041 6.15612 54.3877 6.16648 54.4715 6.16624Z" fill="currentColor"/>
<path d="M8.39501 4.56902C8.24374 4.79581 8.18869 5.07344 8.24205 5.3407C8.29541 5.60808 8.45283 5.84319 8.67974 5.99446L11.7631 8.05006C12.2353 8.36514 12.8736 8.23759 13.1886 7.76534C13.5037 7.29308 13.3762 6.65485 12.9039 6.33977L9.82058 4.28417C9.59378 4.1329 9.31616 4.07785 9.04878 4.13121C8.78139 4.18481 8.54629 4.34223 8.39501 4.56902Z" fill="currentColor"/>
<path d="M14.1398 0.031044C13.8752 0.0970468 13.6477 0.265547 13.5074 0.499326C13.367 0.733106 13.3254 1.01314 13.3916 1.27775L14.4194 5.38883C14.5339 5.84615 14.9448 6.16689 15.4163 6.16689C15.5004 6.16725 15.5844 6.15689 15.6661 6.13606C15.9307 6.07006 16.1582 5.90156 16.2985 5.66778C16.4388 5.434 16.4805 5.15397 16.4142 4.88935L15.3865 0.778272C15.2486 0.227607 14.6905 -0.106863 14.1398 0.031044Z" fill="currentColor"/>
</svg>
