<svg width="100%" height="100%" viewBox="0 0 150 37" fill="none" xmlns="http://www.w3.org/2000/svg">
<path fill-rule="evenodd" clip-rule="evenodd" d="M91.3624 10.5405C88.9894 10.5405 87.085 11.1733 85.1075 12.1224C85.1222 6.6148 85.1954 1.81182 85.3273 0L73.7989 2.18572V3.20674L74.9268 3.35059C76.5381 3.56636 77.1534 4.48664 77.3438 6.60053C77.7099 10.6413 77.6514 32.2978 77.3438 35.7633C80.4492 36.4535 83.8038 36.9713 87.1729 36.9713C96.3135 36.9713 101.821 31.4206 101.821 22.6343C101.821 15.6023 97.3536 10.5405 91.3624 10.5405ZM87.3487 35.188C86.6895 35.188 85.8545 35.0874 85.3858 35.001C85.2101 32.5708 85.0929 22.5479 85.1075 13.7904C86.1621 13.4452 86.8799 13.359 87.8028 13.359C91.5822 13.359 93.7208 17.6442 93.7208 23.0656C93.7208 29.9537 91.0987 35.188 87.3487 35.188ZM30.4687 10.8138L28.6669 11.3027C27.0996 6.15453 24.5946 3.24984 19.9364 3.24984H13.96C13.6816 6.52861 13.5791 11.9929 13.6085 17.6731L17.6368 17.5437C20.3174 17.4574 21.4307 15.5017 22.0753 12.6113H23.584V24.6473H22.0753C21.4307 21.7569 20.3028 19.8156 17.6368 19.7149L13.6231 19.5855C13.667 23.8996 13.7842 27.5809 13.9746 29.7666C14.253 32.9735 15.1319 34.3826 17.4463 34.7133L19.4971 34.9291V36.3671H0V34.9291L1.61139 34.7133C3.92589 34.3826 4.8048 32.9734 5.08304 29.7666C5.52245 24.4891 5.59572 13.5027 5.08304 7.37677C4.8047 4.16993 3.92579 2.76074 1.61139 2.43004L0 2.21436V0.776336H30.3076L30.4687 10.8138ZM40.166 10.2529C48.7793 10.2529 53.0566 15.9905 53.0566 23.5401C53.0566 30.917 48.2226 36.9711 39.6092 36.9711C30.9959 36.9711 26.704 31.2335 26.704 23.6839C26.704 16.307 31.5381 10.2529 40.166 10.2529ZM39.7119 11.8923C35.9033 11.8923 34.834 16.9541 34.834 23.6121C34.834 30.0975 36.5187 35.3318 40.0488 35.3318C43.8574 35.3318 44.9267 30.2701 44.9267 23.6121C44.9267 17.1266 43.2423 11.8923 39.7119 11.8923ZM103.931 23.8565C103.916 16.8533 108.428 10.2816 117.305 10.2816C124.526 10.2816 127.983 15.5448 128.013 22.4185H111.899C111.724 28.6594 114.946 33.2468 121.099 33.2468C123.809 33.2468 125.273 32.5854 126.914 31.3629L127.676 32.2546C125.889 34.6848 122.153 37 117.202 37C109.424 36.9855 103.945 31.5786 103.931 23.8565ZM111.958 20.6354L120.044 20.4629C120.088 16.9541 119.517 11.9354 116.602 11.9354C113.672 11.9354 112.031 16.6809 111.958 20.6354ZM148.726 18.1332L147.407 18.4784C146.001 14.0062 143.862 12.108 140.742 12.108C138.662 12.108 137.153 13.6466 137.153 15.8756C137.153 18.0902 138.838 19.2549 143.716 21.1099C148.213 22.8212 150 24.7912 150 28.3719C150 33.7212 145.825 36.9999 138.97 36.9999C135.674 36.9999 132.012 36.2809 129.873 35.4325L129.639 28.0411L130.957 27.696C132.847 32.8728 135.308 34.7566 138.545 34.7566C141.299 34.7566 142.837 32.8297 142.837 30.7734C142.837 28.7745 141.68 27.581 137.285 26.0279C133.198 24.5899 130.239 22.8356 130.239 18.349C130.239 13.9919 134.165 10.2674 140.654 10.2674C143.672 10.2674 146.528 10.7851 148.447 11.6478L148.726 18.1332ZM72.7294 17.9319C69.2431 15.6311 65.4784 16.6378 64.702 17.8888C64.4383 22.0303 64.497 28.3719 64.7899 31.5643C64.9804 33.6781 65.5956 34.5984 67.207 34.8142L69.287 34.958V36.3961H53.2911V34.958L54.419 34.8142C56.0304 34.5984 56.6456 33.6781 56.836 31.5643C57.1436 28.0985 57.2021 20.8798 56.836 16.8391C56.6456 14.7252 56.0304 13.8049 54.419 13.5891L53.2911 13.4453V12.4243L64.7755 10.2384L64.6437 16.1344C67.3243 10.066 72.6272 9.27507 75.5421 10.972L72.7294 17.9319Z" fill="currentColor"/>
</svg>
