<svg width="100%" height="100%" viewBox="0 0 142 79" fill="none" xmlns="http://www.w3.org/2000/svg">
<path d="M10.7196 33.4893H5.62436V5.19886H0V0.499512H16.3885V5.19886H10.7147V33.4893H10.7196Z" fill="currentColor"/>
<path d="M23.9969 19.3273V33.4898H18.9019V0.495117H23.9969V14.623H31.2686V0.495117H36.3638V33.4849H31.2686V19.3224H23.9969V19.3273Z" fill="currentColor"/>
<path d="M58.0995 23.0024C58.0995 26.7124 57.5554 28.9385 56.2198 30.8182C54.7358 32.8958 52.2623 33.9841 49.0965 33.9841C45.9305 33.9841 43.4572 32.8958 41.9732 30.8182C40.6375 28.9385 40.0933 26.7124 40.0933 23.0024V10.9818C40.0933 7.27172 40.6375 5.04568 41.9732 3.16598C43.4572 1.08835 45.9305 0 49.0965 0C52.2623 0 54.7358 1.08835 56.2198 3.16598C57.5554 5.04568 58.0995 7.27172 58.0995 10.9818V23.0024ZM45.1885 22.9035C45.1885 25.5252 45.3369 26.3661 45.8316 27.4049C46.4252 28.4933 47.6618 29.1857 49.0965 29.1857C50.531 29.1857 51.7677 28.4933 52.3613 27.4049C52.9054 26.3661 53.0043 25.5747 53.0043 22.9035V11.0806C53.0043 8.4094 52.9054 7.61805 52.3613 6.57924C51.7677 5.49089 50.531 4.79841 49.0965 4.79841C47.6618 4.79841 46.4252 5.49089 45.8316 6.57924C45.3369 7.56852 45.1885 8.45893 45.1885 11.0806V22.9035Z" fill="currentColor"/>
<path d="M78.8863 0.495117V22.8543C78.8863 27.0096 78.3915 29.1368 77.0066 31.0165C75.5719 32.9457 73.1481 33.9845 70.1801 33.9845C67.212 33.9845 64.7385 32.9457 63.304 31.0165C61.9189 29.1368 61.4243 27.0096 61.4243 22.8543V0.495117H66.5193V23.6903C66.5193 27.5983 67.5581 29.1812 70.1801 29.1812C72.8018 29.1812 73.791 27.5983 73.791 23.6903V0.495117H78.8863Z" fill="currentColor"/>
<path d="M100.627 15.4981V33.4894H98.0054L97.0655 30.6698C95.3837 33.0442 93.5533 33.9841 90.8821 33.9841C87.8645 33.9841 85.3417 32.5497 84.0556 30.1257C82.9672 27.9985 82.6211 25.8715 82.6211 21.3204V12.2185C82.6211 6.97491 83.0168 5.09521 84.5503 3.06692C85.9848 1.08835 88.5077 0 91.5252 0C97.2139 0 100.479 3.75959 100.479 10.2398V11.61H95.3837V10.5366C95.3837 6.77698 94.0481 4.79841 91.4757 4.79841C90.1401 4.79841 89.0024 5.39202 88.4581 6.48017C87.8645 7.56852 87.7161 8.50847 87.7161 11.229V21.3204C87.7161 24.0412 87.8645 25.4757 88.2604 26.7124C88.8045 28.246 90.0906 29.1857 91.723 29.1857C94.3942 29.1857 95.5321 27.2565 95.5321 22.656V19.7029H91.3273V15.4981H100.627Z" fill="currentColor"/>
<path d="M110.223 19.3273V33.4898H105.128V0.495117H110.223V14.623H117.495V0.495117H122.59V33.4849H117.495V19.3224H110.223V19.3273Z" fill="currentColor"/>
<path d="M135.893 33.4893H130.797V5.19886H125.173V0.499512H141.562V5.19886H135.888V33.4893H135.893Z" fill="currentColor"/>
<path d="M17.2104 57.4419V55.5522C17.2104 51.7433 15.8747 49.814 13.3519 49.814C11.9667 49.814 10.8784 50.4076 10.3343 51.4465C9.69117 52.5348 9.54277 53.5241 9.54277 56.1953V67.1771C9.54277 69.7 9.69117 70.9862 10.087 72.0744C10.5816 73.3607 11.8679 74.2016 13.3519 74.2016C16.0231 74.2016 17.3092 72.0744 17.3092 67.7707V65.6585H22.4538V68.0675C22.4538 75.2404 19.3373 79 13.4012 79C10.087 79 7.46514 77.7137 6.03065 75.3393C4.7939 73.3111 4.44775 71.3819 4.44775 66.4846V57.2342C4.44775 51.9907 4.84343 50.1604 6.37699 48.0827C7.81148 46.104 10.2848 45.0156 13.3519 45.0156C18.9912 45.0156 22.3054 48.7752 22.3054 55.2556V57.4419H17.2104Z" fill="currentColor"/>
<path d="M53.7567 78.5056H48.6615V50.2152H43.0371V45.5156H59.4257V50.2152H53.7567V78.5056Z" fill="currentColor"/>
<path d="M86.9004 73.8062H94.0088V78.5056H81.8052V45.5156H86.9004V73.8062Z" fill="currentColor"/>
<path d="M113.835 68.018C113.835 71.7281 113.291 73.9541 111.955 75.834C110.471 77.9116 107.998 79 104.832 79C101.666 79 99.1928 77.9116 97.7088 75.834C96.3732 73.9541 95.8291 71.7281 95.8291 68.018V55.9976C95.8291 52.2875 96.3732 50.0613 97.7088 48.1816C99.1928 46.104 101.666 45.0156 104.832 45.0156C107.998 45.0156 110.471 46.104 111.955 48.1816C113.291 50.0613 113.835 52.2875 113.835 55.9976V68.018ZM100.924 67.9191C100.924 70.5408 101.073 71.3819 101.567 72.4207C102.161 73.5089 103.398 74.2016 104.832 74.2016C106.267 74.2016 107.503 73.5089 108.097 72.4207C108.641 71.3819 108.74 70.5904 108.74 67.9191V56.0965C108.74 53.4252 108.641 52.6337 108.097 51.5949C107.503 50.5065 106.267 49.814 104.832 49.814C103.398 49.814 102.161 50.5065 101.567 51.5949C101.073 52.5841 100.924 53.4746 100.924 56.0965V67.9191Z" fill="currentColor"/>
<path d="M134.819 60.5139V78.5052H132.199L131.257 75.6856C129.576 78.06 127.746 79 125.074 79C122.057 79 119.534 77.5653 118.248 75.1413C117.16 73.0143 116.813 70.8872 116.813 66.3362V57.2342C116.813 51.9907 117.209 50.1108 118.743 48.0827C120.177 46.104 122.7 45.0156 125.718 45.0156C131.406 45.0156 134.671 48.7752 134.671 55.2556V56.6258H129.576V55.5522C129.576 51.7928 128.24 49.814 125.668 49.814C124.332 49.814 123.195 50.4076 122.651 51.496C122.057 52.5842 121.908 53.5241 121.908 56.2449V66.3362C121.908 69.0568 122.057 70.4915 122.453 71.7281C122.997 73.2616 124.283 74.2016 125.915 74.2016C128.587 74.2016 129.724 72.2723 129.724 67.6719V64.7185H125.52V60.5139H134.819Z" fill="currentColor"/>
<path d="M38.6137 78.5056H43.8573L37.1792 45.5156H30.2043L23.8726 78.5056H28.8687L29.8185 73.2274H37.6343L38.6137 78.5056ZM30.7089 68.2806L33.6671 51.8476L36.7142 68.2806H30.7089Z" fill="currentColor"/>
<path d="M73.4992 78.5056H78.7428L72.0647 45.5156H65.0898L58.7578 78.5056H63.7542L64.7039 73.2274H72.5197L73.4992 78.5056ZM65.5943 68.2806L68.5524 51.8476L71.5996 68.2806H65.5943Z" fill="currentColor"/>
</svg>
