<svg width="100%" height="100%" viewBox="0 0 137 35" fill="none" xmlns="http://www.w3.org/2000/svg">
<path fill-rule="evenodd" clip-rule="evenodd" d="M74.5313 20.8482V20.0893H85.0448V20.3125V20.6473V20.8705H82.5449V34.5536H82.0759L82.0311 34.375C81.7413 33.0134 80.3347 32.5446 79.6208 32.5446H79.5088H79.3529C78.1699 32.5877 77.1115 33.0865 76.0176 33.602L75.893 33.6607C75.7815 33.7054 75.6751 33.75 75.5692 33.7946C75.4632 33.8393 75.3573 33.8839 75.2458 33.9286C74.0847 34.4866 72.835 34.9777 71.3169 34.9777C63.1918 34.9777 57.2544 27.9687 57.2544 18.0804C57.2544 5.95984 65.2008 0.0892858 70.9823 0.0892858C72.2544 0.0892858 73.0804 0.334821 74.1962 0.691963L74.6652 0.825892C74.7716 0.861437 74.8831 0.899242 74.9984 0.938591L74.9998 0.939049C75.2467 1.02313 75.515 1.11425 75.8034 1.20536L76.25 1.31696C76.5627 1.38393 76.9645 1.45089 77.433 1.47321C78.3929 1.49553 79.5088 1.25 79.9777 0.133928L80.0445 0H80.4239H80.5359V12.2768H80.4239H80.0226L79.9777 12.0982C77.924 3.92857 75.4016 0.892858 71.0047 0.870538H70.9599C67.3437 0.870538 66.1383 3.19196 65.491 4.44197C63.7723 7.76784 63.4153 15.3571 63.4153 17.6786C63.4153 24.1741 63.9954 26.9643 65.0892 29.8661C66.2055 32.8348 68.1473 34.2634 71.0714 34.2188C73.7725 34.1741 77.2324 33.0134 77.2324 27.8125V20.8482H74.5313ZM135.535 22.2768V22.0759H136.183V34.3527H112.053V33.5491H115V1.7634H111.719H108.951V25.7366C109.017 29.933 106.227 35 100.134 35C91.0489 35 87.9461 30.2679 87.9461 24.1518V1.7634H84.8213V1.31697V0.982155H96.5397V1.31697V1.7634H93.5265V26.942C93.5265 27.2099 93.7271 33.8616 100.335 34.1072C102.143 34.1741 104.129 33.4598 105.535 32.1205C106.696 31.0268 108.036 28.9286 108.102 25.5134V1.7634H105.513V1.31697V0.982155H111.719H112.388H112.611H134.821V12.2322H134.286L134.241 12.0536C132.175 1.59815 127.394 1.69648 122.494 1.79724C122.31 1.80102 122.126 1.80481 121.942 1.80805C121.584 1.83037 121.004 1.83037 120.647 1.83037V16.9197H120.893H120.92C123.616 16.9197 126.899 16.9198 127.611 10.3795L127.634 10.1786H128.169V24.5759H127.634L127.611 24.375C127.091 17.6608 124.029 17.6926 121.319 17.7208L121.267 17.7214C121.202 17.7221 121.136 17.7227 121.071 17.7232H120.625V33.5714H120.893C120.99 33.5714 121.105 33.5728 121.236 33.5743C123.123 33.5959 128.355 33.656 131.986 30.3795C134.196 28.3928 135.379 25.6697 135.535 22.2768ZM40.0228 0.178589C33.1701 0.178589 25.6478 7.03126 25.6478 17.5C25.6478 27.9688 33.4156 34.9107 40.0228 34.9107C46.63 34.9107 54.3979 27.9688 54.3979 17.5C54.3755 7.03126 46.8757 0.178589 40.0228 0.178589ZM48.0139 16.2054V16.4286V16.5848V16.7188V16.9197V16.9866V17.1875V17.2322V17.4554V17.634C48.0139 19.5759 47.8352 27.0536 45.871 30.7813C44.7549 32.9464 42.5897 34.0849 39.9781 34.0849C37.3665 34.0849 35.179 32.9464 34.0853 30.7813C32.121 27.0536 31.9647 19.5759 31.9647 17.634V17.4554V17.2322V17.1875V16.9866V16.9197V16.7188V16.5848V16.4286V16.2054V16.1161C32.0317 13.125 32.4112 7.52233 34.0853 4.24109C35.4246 1.51787 38.1478 0.937518 39.9781 0.937518C41.8308 0.937518 44.5317 1.51787 45.871 4.24109C47.5449 7.52233 47.9024 13.125 47.9915 16.1161C48.0139 16.1384 48.0139 16.183 48.0139 16.2054ZM22.1652 0.982155H28.3036H28.5268V1.74108H25.8036H25.5134L15.7143 34.5313H15.5357L3.21429 1.74108H2.90179H0V1.29465V0.982155H11.0938V1.29465V1.74108H8.74999H8.59375L17.3884 26.1161L24.6652 1.74108H21.942V0.982155H22.1652Z" fill="currentColor"/>
</svg>
