<svg width="100%" height="100%" viewBox="0 0 171 35" fill="none" xmlns="http://www.w3.org/2000/svg">
<path d="M17.6846 34.2588L20.6615 4.8234C20.829 3.31409 21.1227 3.06219 21.6259 3.06219H21.9192V1.38533H17.0973V3.06219H17.391C18.0617 3.06219 18.3971 3.52366 18.3133 4.8234L16.5941 22.4344L14.6236 4.8234C14.4555 3.43989 14.7909 3.06219 15.5463 3.06219H15.6297V1.38533H8.92084V3.06219H9.2568C9.8858 3.06219 9.8858 3.31409 10.0116 4.8234L10.5148 9.3105L8.96287 23.5666L7.20224 4.8234C6.99238 3.31409 7.28601 3.06219 7.95676 3.06219H8.04023V1.38533H1.24756V3.06219H1.58322C2.296 3.06219 2.33774 3.31409 2.50557 4.8234L5.5245 34.2588H9.88551L11.6047 19.1215L13.3656 34.2588H17.6846ZM46.5756 14.971C46.5756 12.9164 46.5756 12.2033 47.8754 12.2033C48.756 12.2033 48.756 12.5387 48.756 14.2579V31.8268C48.756 32.4561 48.5461 32.5816 48.2108 32.5816H48.0015V34.2585H54.7521V32.5816H54.4585C53.9976 32.5816 53.8718 32.4135 53.8718 31.7427V13.3358C53.8718 10.3163 53.2428 9.14208 50.2656 9.14208C48.5461 9.14208 47.2887 9.68731 46.4919 11.5737C46.1559 9.89688 45.2756 9.14208 42.9697 9.14208C41.0827 9.14208 40.0763 9.72935 39.3218 11.5737V9.14208L33.5352 9.60354V11.2804H33.7865C34.1639 11.2804 34.4573 11.5737 34.4573 12.497V31.6167C34.4573 32.3715 34.2897 32.5816 33.7865 32.5816H33.5352V34.2585H39.9925V32.5816H39.7412C39.4056 32.5816 39.3218 32.4558 39.3218 31.9523V14.971C39.3218 12.9164 39.2795 12.2033 40.5792 12.2033C41.4598 12.2033 41.4598 12.5387 41.4598 14.2579V31.8268C41.4598 32.4561 41.2503 32.5816 40.9566 32.5816H40.6633V34.2585H47.2887V32.5816H47.2047C46.7438 32.5816 46.5756 32.4135 46.5756 31.7427V14.971ZM93.7487 34.2588H101.842V32.5819H101.296C100.584 32.5819 100.374 32.288 100.374 30.8207V18.1574H104.651V30.8204C104.651 32.2877 104.442 32.5816 103.77 32.5816H103.141V34.2585H111.192V32.5816H110.522C109.808 32.5816 109.683 32.2877 109.683 30.8204V4.8234C109.683 3.31409 109.808 3.06219 110.522 3.06219H111.192V1.38533H103.141V3.06219H103.77C104.442 3.06219 104.651 3.31409 104.651 4.8234V16.186H100.374V4.8234C100.374 3.31409 100.584 3.06219 101.296 3.06219H101.842V1.38533H93.7487V3.06219H94.4618C95.1328 3.06219 95.3424 3.31409 95.3424 4.8234V31.6587C95.3424 32.3718 95.1328 32.5819 94.4618 32.5819H93.7487V34.2588ZM154.886 34.2588H161.301V32.5819H161.091C160.672 32.5819 160.63 32.4561 160.63 31.9526V14.971C160.63 12.9164 160.673 12.2033 161.972 12.2033C162.936 12.2033 162.936 12.5387 162.936 14.2579V31.8268C162.936 32.4561 162.769 32.5816 162.476 32.5816H162.182V34.2585H168.975V32.5816H168.681C168.22 32.5816 168.136 32.4135 168.136 31.7427V13.3358C168.136 10.3163 167.381 9.14208 164.446 9.14208C162.517 9.14208 161.427 9.72935 160.63 11.5737V0.881836L154.467 1.38533V3.06219H155.096C155.514 3.06219 155.766 3.31409 155.766 4.23672V31.6167C155.766 32.3715 155.64 32.5816 155.096 32.5816H154.886V34.2588ZM26.7417 34.5521C32.1094 34.5521 32.8639 30.0656 32.8639 21.8471C32.8639 13.5871 32.0671 9.14208 26.7417 9.14208C21.4169 9.14208 20.6203 13.5871 20.6203 21.8471C20.6201 30.0656 21.3749 34.5521 26.7417 34.5521ZM67.3737 34.2588H73.831V32.5819H73.5371C73.1605 32.5819 73.1605 32.4561 73.1605 31.9526V14.971C73.1605 12.9164 73.1605 12.2033 74.5014 12.2033C75.4241 12.2033 75.4664 12.5387 75.4664 14.2579V31.8268C75.4664 32.4561 75.2151 32.5816 74.9629 32.5816H74.669V34.2585H81.4622V32.5816H81.1689C80.7074 32.5816 80.5822 32.4135 80.5822 31.7427V13.3358C80.5822 10.3163 79.8691 9.14208 76.8914 9.14208C75.0055 9.14208 73.8727 9.72935 73.1605 11.5737V9.14208L66.9542 9.60354V11.2804H67.6253C68.003 11.2804 68.2957 11.5737 68.2957 12.497V31.6167C68.2957 32.3715 68.1288 32.5816 67.6253 32.5816H67.374V34.2588H67.3737ZM126.875 34.5521C129.097 34.5521 129.936 33.4625 130.397 32.1622C130.816 34.0909 131.277 34.5521 133.793 34.5521C136.728 34.5521 137.106 32.7915 137.064 29.3528H135.68C135.68 31.8271 135.638 32.0784 135.176 32.0784C134.757 32.0784 134.757 31.8688 134.757 30.4847V14.1741C134.757 10.8616 133.668 9.14237 129.81 9.14237C126.749 9.14237 123.73 10.065 123.897 13.3773C123.981 14.8872 124.569 16.4803 126.162 16.3962C127.629 16.3124 128.3 15.5162 128.3 14.2996C128.3 13.4613 127.671 12.0772 126.665 11.3224C127.042 11.1549 127.629 10.9865 128.594 10.9865C129.684 10.9865 129.893 11.8253 129.893 13.4187V17.989C124.317 19.876 123.143 20.6308 123.143 27.6333C123.143 32.6657 124.359 34.5521 126.875 34.5521ZM117.273 34.5521C121.423 34.5521 122.388 33.2944 122.178 26.418H120.459C120.459 31.8688 120.291 32.288 118.363 32.288C116.056 32.288 116.056 31.2816 116.056 21.9317V21.1763H122.764C122.764 11.7425 121.717 9.14267 117.272 9.14267C113.247 9.14267 111.15 11.6169 111.15 22.0152C111.151 31.9106 112.744 34.5944 117.273 34.5521ZM61.5448 34.5521C65.6128 34.5521 66.7447 33.2944 66.5766 26.418H64.8582C64.8582 31.8688 64.6066 32.288 62.6356 32.288C60.1616 32.288 60.2874 31.2816 60.2874 21.9317V21.1763H66.7867C66.7867 11.7425 65.9064 9.14267 61.5451 9.14267C57.4786 9.14267 55.3817 11.6169 55.3817 22.0152C55.3814 31.9106 56.9745 34.5944 61.5448 34.5521ZM137.987 34.2588H144.696V32.5819H144.193C143.773 32.5819 143.606 32.3717 143.606 31.7013V0.881836L137.358 1.38533V3.06219H138.071C138.49 3.06219 138.658 3.22973 138.658 3.90106V31.7851C138.658 32.4138 138.616 32.5819 138.322 32.5819H137.987V34.2588H137.987ZM89.0103 34.5521C92.0719 34.5521 93.6655 32.5393 93.6655 29.5209C93.6655 22.4347 87.2497 18.3253 87.2497 13.2515C87.2497 11.6998 87.7949 11.2387 88.8851 11.2387C90.4782 11.2387 90.7301 11.9097 91.0234 14.2996L91.2744 16.6475H93.1194V9.35165H91.6527C91.5684 10.2749 91.3594 10.61 91.2744 10.4839C90.8141 9.93892 89.7234 9.14237 87.9207 9.14237C85.2369 9.14237 82.889 10.3583 82.889 14.3417C82.889 20.5473 89.2625 25.2857 89.2625 30.0239C89.2625 32.0784 88.8016 32.4138 87.3337 32.4138C85.8664 32.4138 85.4893 31.7433 85.196 28.6403L84.9858 26.5852H83.0571V34.2588H84.7339C84.8603 33.4199 85.1543 32.8752 85.405 33.1266C85.9499 33.7559 86.5366 34.5521 89.0103 34.5521ZM145.954 29.0598C145.954 33.0428 146.541 34.5521 150.482 34.5521C153.25 34.5521 153.879 33.4625 153.879 30.4016V26.2498H152.202V30.6111C152.202 32.0784 152.076 32.246 151.531 32.246C150.986 32.246 150.86 32.0784 150.86 30.7787V11.2387H153.921V9.35165H150.902V3.06219H149.183C147.967 8.63946 146.919 9.35165 145.283 9.35165H144.822V11.1966H145.954L145.954 29.0598ZM26.7417 32.4135C25.5683 32.4135 25.5683 31.743 25.5683 21.8471C25.5683 11.9097 25.5683 11.2387 26.7417 11.2387C27.9159 11.2387 27.9159 11.9097 27.9159 21.8471C27.9159 31.7851 27.9159 32.4135 26.7417 32.4135ZM82.0501 10.4007C86.2427 7.2971 87.0818 4.9492 85.6977 2.81088C84.9429 1.63694 83.2234 0.88213 81.9657 1.93028C80.4558 3.18799 80.8335 5.36893 83.6432 6.62694C83.1397 7.21362 81.9657 8.34642 81.0014 9.31079L82.0501 10.4007ZM128.887 31.6167C127.881 31.6167 127.881 30.5691 127.881 27.2565C127.881 21.2184 127.881 20.4215 129.893 19.3314V29.6882C129.893 31.2395 129.684 31.6167 128.887 31.6167ZM60.2871 19.4154C60.3708 11.574 60.4969 11.1969 61.5871 11.1969C62.6353 11.1969 62.5518 11.6167 62.5518 19.4154H60.2871ZM116.057 19.4154C116.183 11.574 116.267 11.1969 117.357 11.1969C118.447 11.1969 118.279 11.6167 118.279 19.4154H116.057Z" fill="currentColor"/>
</svg>
