<svg width="100%" height="100%" viewBox="0 0 147 67" fill="none" xmlns="http://www.w3.org/2000/svg">
<path fill-rule="evenodd" clip-rule="evenodd" d="M55.7982 0L49.3974 67H31.7932L27.739 32.0069L23.7912 67H6.61529L0 0H13.6557L16.75 46.1958C17.2832 34.4607 18.6699 18.9901 20.5905 0H35.2069L38.1939 47.6889C38.9409 32.2198 40.221 16.3233 41.9279 0H55.7982Z" fill="currentColor"/>
<path fill-rule="evenodd" clip-rule="evenodd" d="M111.276 0L104.874 67H87.4838C85.8842 57.0783 84.4976 45.3431 83.2174 32.0069L79.2689 67H61.8792L55.6914 0H69.3471L72.3342 46.1958C72.7609 35.419 73.9345 20.0572 76.0681 0H90.4716L93.6724 47.6889C94.6331 29.8733 96.0197 14.0832 97.6193 0H111.276ZM113.943 0V67H131.547L139.229 66.3611C140.828 65.9328 142.215 65.2939 143.283 64.0138C144.563 62.9466 145.309 61.347 145.843 59.4264L146.483 47.1573V23.792L145.95 10.9897C145.842 8.85535 144.882 6.93552 143.709 5.12138C142.429 3.41452 140.616 2.13437 138.161 1.28015L130.16 0.213752L113.943 0ZM130.16 11.7359L131.226 12.0561L132.293 14.0832L132.505 19.9515V45.8771L131.759 54.0904L130.159 55.2649L128.024 55.4771V11.5221L130.16 11.7359Z" fill="currentColor"/>
</svg>
