<svg width="100%" height="100%" viewBox="0 0 140 44" fill="none" xmlns="http://www.w3.org/2000/svg">
<path d="M130.203 12.6955V21.6443C130.203 22.6971 131.355 22.8616 132.473 22.8616V23.059H125.203V22.8616C126.321 22.8616 127.473 22.6971 127.473 21.6443V13.4193L120.86 1.47659C120.169 0.292191 119.61 0.226391 118.491 0.226391V0.0618896H125.795V0.226391C124.676 0.226391 123.393 0.35799 123.952 1.41079L129.644 11.7085H129.677L130.006 12.3336L135.73 1.47659C136.356 0.390891 135.467 0.226391 134.349 0.226391V0.0618896H139.678V0.226391C138.527 0.226391 136.75 0.423791 136.125 1.47659L130.203 12.6955Z" fill="currentColor"/>
<path d="M99.6313 5.58909L101.112 0.0289917H115.028L116.509 5.58909L116.344 5.62199L115.094 1.47659C114.765 0.555393 114.14 0.390893 113.087 0.390893H111.64C110.554 0.390893 109.436 0.390893 109.436 1.44369V21.6443C109.436 22.6971 110.587 22.8616 111.706 22.8616V23.059H104.402V22.8616C105.553 22.8616 106.705 22.6971 106.705 21.6443V1.44369C106.705 0.390893 105.586 0.390893 104.468 0.390893H103.053C102 0.390893 101.342 0.555393 101.046 1.47659L99.7959 5.62199L99.6313 5.58909Z" fill="currentColor"/>
<path d="M92.9538 12.2678H92.7893C92.7893 8.68169 91.8681 8.12239 90.7166 8.12239H89.7954C88.8084 8.12239 87.7556 8.25399 86.7686 8.51719V21.6443C86.7686 22.6971 87.8872 22.6971 89.0058 22.6971H94.2369C95.2897 22.6971 95.9477 22.5655 96.2438 21.6114L97.494 17.466L97.6585 17.4989L96.178 23.059H81.7678V22.8945C82.8864 22.8945 84.0379 22.6971 84.0379 21.6443V9.80029C82.7877 10.7215 81.9323 12.0704 81.9323 13.9128H81.7678C81.7678 11.9059 82.689 10.4254 84.0379 9.43839V1.47659C84.0379 0.390891 82.8864 0.226391 81.7678 0.226391V0.0618896H96.178L97.6585 5.58909L97.494 5.65489L96.2438 1.47659C95.9477 0.555391 95.2897 0.390891 94.2369 0.390891H89.0058C87.8872 0.390891 86.7686 0.390891 86.7686 1.47659V8.18819C87.7556 7.92499 88.8084 7.79339 89.7954 7.79339H90.7166C91.8681 7.79339 92.7893 7.56309 92.7893 5.42459H92.9538V12.2678Z" fill="currentColor"/>
<path d="M66.0343 0.0618896V0.226391C65.0802 0.226391 64.0603 0.35799 63.9945 1.08179L69.6862 16.5777L70.5416 18.9794L76.7268 1.47659H76.6939C77.0229 0.390891 75.5753 0.226391 74.4567 0.226391V0.0618896H79.7864V0.226391C78.7337 0.226391 77.5822 0.32509 77.1545 1.21339L69.4888 23.059H69.1269V23.0261L61.198 1.47659C60.8361 0.259291 59.882 0.226391 58.7634 0.226391V0.0618896H66.0343Z" fill="currentColor"/>
<path d="M45.9016 1.47659V21.6443C45.9016 22.6971 47.0202 22.73 48.1059 22.73H53.337C54.4227 22.73 55.0478 22.5655 55.3768 21.6443L56.627 17.466L56.7915 17.5318L55.311 23.059H40.8679V22.8945C42.0194 22.8945 43.1709 22.73 43.1709 21.6443V1.47659C43.1709 0.390891 42.0194 0.226391 40.8679 0.226391V0.0618896H48.1717V0.226391C47.0531 0.226391 45.9016 0.390891 45.9016 1.47659Z" fill="currentColor"/>
<path d="M34.1901 12.2678H34.0256C34.0256 8.68169 33.1044 8.12239 31.9529 8.12239H31.0317C30.0447 8.12239 28.9919 8.25399 28.0049 8.51719V21.6443C28.0049 22.6971 29.1235 22.6971 30.2421 22.6971H35.4732C36.526 22.6971 37.184 22.5655 37.4801 21.6114L38.7303 17.466L38.8948 17.4989L37.4143 23.059H23.0042V22.8945C24.1227 22.8945 25.2742 22.6971 25.2742 21.6443V9.80029C24.024 10.7215 23.1687 12.0704 23.1687 13.9128H23.0042C23.0042 11.9059 23.9253 10.4254 25.2742 9.43839V1.47659C25.2742 0.390891 24.1227 0.226391 23.0042 0.226391V0.0618896H37.4143L38.8948 5.58909L38.7303 5.65489L37.4801 1.47659C37.184 0.555391 36.526 0.390891 35.4732 0.390891H30.2421C29.1235 0.390891 28.0049 0.390891 28.0049 1.47659V8.18819C28.9919 7.92499 30.0447 7.79339 31.0317 7.79339H31.9529C33.1044 7.79339 34.0256 7.56309 34.0256 5.42459H34.1901V12.2678Z" fill="currentColor"/>
<path d="M7.27087 0.0618896V0.226391C6.31678 0.226391 5.29688 0.35799 5.23108 1.08179L10.9228 16.5777L11.7782 18.9794L17.9633 1.47659H17.9304C18.2594 0.390891 16.8118 0.226391 15.6932 0.226391V0.0618896H21.023V0.226391C19.9702 0.226391 18.8187 0.32509 18.391 1.21339L10.7254 23.059H10.3635V23.0261L2.43459 1.47659C2.07269 0.259291 1.1186 0.226391 0 0.226391V0.0618896H7.27087Z" fill="currentColor"/>
<path d="M114.94 43.283C114.289 43.283 113.798 43.1017 113.468 42.739C113.148 42.387 112.988 41.9497 112.988 41.427C112.988 40.947 113.105 40.4404 113.34 39.907C113.585 39.3737 113.905 38.8724 114.3 38.403C114.705 37.9337 115.148 37.555 115.628 37.267C116.108 36.9684 116.582 36.819 117.052 36.819C117.297 36.819 117.521 36.883 117.724 37.011C117.937 37.139 118.044 37.4004 118.044 37.795C118.044 38.2004 117.921 38.5844 117.676 38.947C117.441 39.299 117.126 39.6137 116.732 39.891C116.348 40.1684 115.921 40.3977 115.452 40.579C114.993 40.7497 114.534 40.8564 114.076 40.899C114.054 41.0057 114.038 41.107 114.028 41.203C114.017 41.299 114.012 41.3897 114.012 41.475C114.012 41.635 114.028 41.795 114.06 41.955C114.102 42.115 114.172 42.2644 114.268 42.403C114.364 42.531 114.492 42.6324 114.652 42.707C114.822 42.7817 115.03 42.819 115.276 42.819C115.734 42.819 116.188 42.691 116.636 42.435C117.084 42.1684 117.5 41.8217 117.884 41.395C118.268 40.9684 118.593 40.499 118.86 39.987L119.052 40.131C118.764 40.771 118.396 41.3257 117.948 41.795C117.51 42.2644 117.03 42.627 116.508 42.883C115.996 43.1497 115.473 43.283 114.94 43.283ZM114.156 40.595C114.444 40.499 114.769 40.3604 115.132 40.179C115.494 39.987 115.841 39.763 116.172 39.507C116.513 39.251 116.79 38.9684 117.004 38.659C117.228 38.3497 117.34 38.0244 117.34 37.683C117.34 37.5657 117.318 37.475 117.276 37.411C117.233 37.347 117.142 37.315 117.004 37.315C116.748 37.315 116.476 37.4164 116.188 37.619C115.9 37.811 115.622 38.067 115.356 38.387C115.089 38.707 114.849 39.059 114.636 39.443C114.422 39.827 114.262 40.211 114.156 40.595Z" fill="currentColor"/>
<path d="M110.417 42.995C110.054 42.995 109.766 42.899 109.553 42.707C109.35 42.515 109.249 42.2644 109.249 41.955C109.249 41.635 109.324 41.299 109.473 40.947C109.622 40.595 109.766 40.2484 109.905 39.907C110.054 39.555 110.129 39.2404 110.129 38.963C110.129 38.6217 110.028 38.371 109.825 38.211C109.633 38.0404 109.436 37.8857 109.233 37.747C108.988 38.3764 108.732 38.9737 108.465 39.539C108.198 40.1044 107.98 40.531 107.809 40.819L107.665 40.547C107.814 40.2697 108.006 39.8644 108.241 39.331C108.486 38.7977 108.726 38.1897 108.961 37.507C108.854 37.4004 108.801 37.2724 108.801 37.123C108.801 36.803 108.892 36.5417 109.073 36.339C109.254 36.1364 109.388 36.035 109.473 36.035C109.59 36.035 109.654 36.0884 109.665 36.195C109.686 36.291 109.697 36.3657 109.697 36.419C109.697 36.4724 109.665 36.579 109.601 36.739C109.548 36.8884 109.521 36.979 109.521 37.011C109.521 37.1604 109.601 37.299 109.761 37.427C109.932 37.5444 110.124 37.683 110.337 37.843C110.55 37.9924 110.737 38.179 110.897 38.403C111.068 38.6164 111.153 38.8937 111.153 39.235C111.153 39.555 111.084 39.8804 110.945 40.211C110.817 40.5417 110.684 40.8564 110.545 41.155C110.417 41.4537 110.353 41.715 110.353 41.939C110.353 42.131 110.401 42.259 110.497 42.323C110.593 42.387 110.705 42.419 110.833 42.419C111.089 42.419 111.35 42.339 111.617 42.179C111.894 42.019 112.161 41.8164 112.417 41.571C112.673 41.3257 112.902 41.0697 113.105 40.803C113.308 40.5257 113.457 40.2697 113.553 40.035L113.761 40.195C113.558 40.643 113.281 41.0857 112.929 41.523C112.577 41.9497 112.182 42.3017 111.745 42.579C111.318 42.8564 110.876 42.995 110.417 42.995Z" fill="currentColor"/>
<path d="M101.448 43.331C101.118 43.331 100.84 43.219 100.616 42.995C100.382 42.7817 100.264 42.451 100.264 42.003C100.264 41.619 100.35 41.2083 100.52 40.771C100.691 40.323 100.926 39.8857 101.224 39.459C101.523 39.0217 101.859 38.627 102.232 38.275C102.616 37.9123 103.016 37.6243 103.432 37.411C103.859 37.1977 104.28 37.091 104.696 37.091C105.112 37.091 105.459 37.203 105.736 37.427C106.014 37.6403 106.152 37.9283 106.152 38.291C106.152 38.5577 106.078 38.739 105.928 38.835C105.79 38.931 105.603 38.979 105.368 38.979C105.39 38.8937 105.406 38.803 105.416 38.707C105.438 38.6003 105.448 38.5043 105.448 38.419C105.448 38.1737 105.39 37.9657 105.272 37.795C105.155 37.6137 104.952 37.523 104.664 37.523C104.366 37.523 104.062 37.6297 103.752 37.843C103.443 38.0457 103.144 38.323 102.856 38.675C102.568 39.0163 102.312 39.3897 102.088 39.795C101.864 40.2003 101.688 40.6003 101.56 40.995C101.432 41.3897 101.368 41.7417 101.368 42.051C101.368 42.467 101.512 42.675 101.8 42.675C102.046 42.675 102.312 42.563 102.6 42.339C102.888 42.1043 103.182 41.811 103.48 41.459C103.79 41.0963 104.083 40.723 104.36 40.339C104.638 39.955 104.883 39.603 105.096 39.283C105.139 39.219 105.166 39.187 105.176 39.187C105.24 39.1977 105.32 39.219 105.416 39.251C105.523 39.283 105.614 39.3257 105.688 39.379C105.763 39.4323 105.8 39.5017 105.8 39.587C105.8 39.683 105.752 39.8163 105.656 39.987C105.56 40.147 105.454 40.3337 105.336 40.547C105.219 40.7603 105.112 40.979 105.016 41.203C104.92 41.4163 104.872 41.619 104.872 41.811C104.872 41.971 104.915 42.131 105 42.291C105.086 42.4403 105.224 42.515 105.416 42.515C105.704 42.515 106.083 42.307 106.552 41.891C107.022 41.4643 107.496 40.8297 107.976 39.987L108.136 40.147C107.912 40.723 107.624 41.2297 107.272 41.667C106.92 42.1043 106.542 42.4457 106.136 42.691C105.742 42.9363 105.352 43.059 104.968 43.059C104.574 43.059 104.28 42.9417 104.088 42.707C103.907 42.4723 103.816 42.2163 103.816 41.939C103.816 41.875 103.822 41.8057 103.832 41.731C103.843 41.6457 103.854 41.5603 103.864 41.475C103.406 42.0937 102.984 42.5577 102.6 42.867C102.227 43.1763 101.843 43.331 101.448 43.331Z" fill="currentColor"/>
<path d="M97.2205 43.475C96.7085 43.475 96.2818 43.3044 95.9405 42.963C95.5991 42.6217 95.4285 42.1097 95.4285 41.427C95.4285 40.8937 95.5298 40.3764 95.7325 39.875C95.9458 39.363 96.2231 38.9044 96.5645 38.499C96.9058 38.0937 97.2845 37.7737 97.7005 37.539C98.1165 37.2937 98.5271 37.171 98.9325 37.171C99.3698 37.171 99.6685 37.299 99.8285 37.555C99.9885 37.811 100.068 38.0777 100.068 38.355C100.068 38.6644 99.9938 38.9364 99.8445 39.171C99.7058 39.4057 99.5138 39.523 99.2685 39.523C99.0871 39.523 98.9325 39.443 98.8045 39.283C98.9645 39.1977 99.1031 39.027 99.2205 38.771C99.3378 38.5044 99.3965 38.2537 99.3965 38.019C99.3965 37.891 99.3698 37.795 99.3165 37.731C99.2738 37.6564 99.1831 37.619 99.0445 37.619C98.7565 37.619 98.4578 37.747 98.1485 38.003C97.8498 38.259 97.5671 38.5897 97.3005 38.995C97.0445 39.4004 96.8311 39.827 96.6605 40.275C96.5005 40.723 96.4205 41.1444 96.4205 41.539C96.4205 41.8697 96.5005 42.1737 96.6605 42.451C96.8205 42.7284 97.1298 42.867 97.5885 42.867C98.0151 42.867 98.4418 42.7497 98.8685 42.515C99.3058 42.2804 99.7111 41.9444 100.084 41.507C100.458 41.0697 100.756 40.5577 100.98 39.971L101.188 40.131C100.943 40.771 100.607 41.347 100.18 41.859C99.7538 42.3604 99.2845 42.755 98.7725 43.043C98.2605 43.331 97.7431 43.475 97.2205 43.475Z" fill="currentColor"/>
<path d="M93.2233 42.899C92.8499 42.899 92.5673 42.803 92.3753 42.611C92.1939 42.419 92.1033 42.1737 92.1033 41.875C92.1033 41.651 92.1406 41.4164 92.2153 41.171C92.3006 40.9257 92.3806 40.675 92.4553 40.419C92.5299 40.1524 92.5673 39.8964 92.5673 39.651C92.5673 39.3524 92.5033 39.1497 92.3753 39.043C92.2579 38.9257 92.1086 38.867 91.9273 38.867C91.5966 38.867 91.2606 39.0057 90.9193 39.283C90.5779 39.5497 90.2473 39.8964 89.9273 40.323C89.6073 40.739 89.3086 41.171 89.0313 41.619C88.7539 42.067 88.5086 42.467 88.2953 42.819C88.1246 42.819 87.9646 42.787 87.8153 42.723C87.6553 42.6697 87.5326 42.5844 87.4473 42.467C87.4473 42.4137 87.5059 42.2484 87.6233 41.971C87.7299 41.6937 87.8579 41.3524 88.0073 40.947C88.1566 40.5417 88.2899 40.1257 88.4073 39.699C88.5246 39.2724 88.5833 38.883 88.5833 38.531C88.6473 38.4564 88.7486 38.3817 88.8873 38.307C89.0259 38.2324 89.1699 38.195 89.3193 38.195C89.6073 38.195 89.7513 38.3337 89.7513 38.611C89.7513 38.7817 89.7033 39.0697 89.6073 39.475C89.5113 39.8697 89.3886 40.2857 89.2393 40.723C89.5273 40.2857 89.8473 39.8537 90.1993 39.427C90.5619 38.9897 90.9459 38.627 91.3513 38.339C91.7566 38.051 92.1619 37.907 92.5673 37.907C92.9833 37.907 93.2819 38.0564 93.4633 38.355C93.6553 38.6537 93.7513 38.9844 93.7513 39.347C93.7513 39.6777 93.6979 39.987 93.5913 40.275C93.4846 40.5524 93.3726 40.8244 93.2553 41.091C93.1486 41.347 93.0953 41.6084 93.0953 41.875C93.0953 42.099 93.1379 42.259 93.2233 42.355C93.3193 42.4404 93.4366 42.483 93.5753 42.483C93.8419 42.483 94.1086 42.3604 94.3753 42.115C94.6419 41.859 94.8979 41.539 95.1433 41.155C95.3993 40.771 95.6233 40.3817 95.8153 39.987L95.9913 40.195C95.7673 40.7177 95.5166 41.1817 95.2393 41.587C94.9619 41.9924 94.6579 42.3124 94.3273 42.547C93.9966 42.7817 93.6286 42.899 93.2233 42.899Z" fill="currentColor"/>
<path d="M85.348 42.995C84.932 42.995 84.6226 42.8617 84.42 42.595C84.2173 42.339 84.116 42.0243 84.116 41.651C84.116 41.4057 84.1586 41.0963 84.244 40.723C84.34 40.3497 84.4626 39.9603 84.612 39.555C84.7613 39.139 84.932 38.7497 85.124 38.387C85.3266 38.0243 85.54 37.731 85.764 37.507C85.988 37.2723 86.2066 37.155 86.42 37.155C86.516 37.155 86.596 37.187 86.66 37.251C86.7346 37.3043 86.772 37.3897 86.772 37.507C86.772 37.635 86.6866 37.843 86.516 38.131C86.356 38.419 86.164 38.7497 85.94 39.123C85.716 39.4963 85.5186 39.891 85.348 40.307C85.188 40.7123 85.108 41.1017 85.108 41.475C85.108 41.859 85.172 42.115 85.3 42.243C85.428 42.371 85.6253 42.435 85.892 42.435C86.2546 42.435 86.6386 42.2537 87.044 41.891C87.46 41.5283 87.8973 40.8937 88.356 39.987L88.5 40.147C88.1906 41.0643 87.7426 41.7683 87.156 42.259C86.58 42.7497 85.9773 42.995 85.348 42.995ZM87.268 35.667C87.0973 35.667 86.9426 35.6243 86.804 35.539C86.676 35.4537 86.612 35.3203 86.612 35.139C86.612 34.915 86.74 34.723 86.996 34.563C87.2626 34.3923 87.524 34.307 87.78 34.307C87.94 34.307 88.068 34.3443 88.164 34.419C88.26 34.4937 88.308 34.6217 88.308 34.803C88.308 35.0057 88.196 35.203 87.972 35.395C87.7586 35.5763 87.524 35.667 87.268 35.667Z" fill="currentColor"/>
<path d="M81.8074 43.187C81.5087 43.187 81.2527 43.0857 81.0394 42.883C80.8261 42.6804 80.6554 42.4244 80.5274 42.115C80.4101 41.8057 80.3194 41.491 80.2554 41.171C80.2021 40.8404 80.1754 40.5524 80.1754 40.307C80.2927 40.307 80.4634 40.2804 80.6874 40.227C80.9114 40.163 81.1407 40.0724 81.3754 39.955C81.6101 39.827 81.8074 39.667 81.9674 39.475C82.1381 39.2724 82.2234 39.0377 82.2234 38.771C82.2234 38.547 82.1434 38.371 81.9834 38.243C81.8234 38.115 81.6367 38.051 81.4234 38.051C81.0927 38.051 80.7834 38.1684 80.4954 38.403C80.2074 38.627 79.9461 38.9257 79.7114 39.299C79.4874 39.6617 79.2847 40.051 79.1034 40.467C78.9221 40.883 78.7674 41.2777 78.6394 41.651C78.5114 42.0244 78.4047 42.3337 78.3194 42.579C78.2554 42.771 78.1647 42.899 78.0474 42.963C77.9301 43.0377 77.8074 43.075 77.6794 43.075C77.4981 43.075 77.3647 43.0004 77.2794 42.851C77.2047 42.7017 77.1567 42.515 77.1354 42.291C77.1247 42.0564 77.1194 41.8164 77.1194 41.571C77.1194 41.0164 77.2101 40.3764 77.3914 39.651C77.5727 38.9257 77.8127 38.1737 78.1114 37.395C78.4207 36.6057 78.7567 35.843 79.1194 35.107C79.4821 34.371 79.8447 33.7044 80.2074 33.107C80.5701 32.5097 80.9061 32.035 81.2154 31.683C81.5247 31.331 81.7754 31.155 81.9674 31.155C82.1167 31.155 82.2341 31.2564 82.3194 31.459C82.4154 31.6617 82.4634 31.907 82.4634 32.195C82.4634 32.5577 82.3834 32.9684 82.2234 33.427C82.0634 33.875 81.8341 34.3284 81.5354 34.787C81.2474 35.2457 80.9007 35.6777 80.4954 36.083C80.1007 36.4884 79.6687 36.835 79.1994 37.123C78.8474 37.987 78.5807 38.8297 78.3994 39.651C78.2287 40.4617 78.1434 41.1444 78.1434 41.699C78.3141 41.2724 78.5167 40.803 78.7514 40.291C78.9967 39.779 79.2741 39.2884 79.5834 38.819C79.8927 38.3497 80.2287 37.9657 80.5914 37.667C80.9541 37.3684 81.3327 37.219 81.7274 37.219C82.1221 37.219 82.4581 37.3577 82.7354 37.635C83.0127 37.9124 83.1514 38.2484 83.1514 38.643C83.1514 38.9844 83.0607 39.2777 82.8794 39.523C82.7087 39.7577 82.4954 39.9497 82.2394 40.099C81.9941 40.2377 81.7434 40.3444 81.4874 40.419C81.2421 40.483 81.0394 40.515 80.8794 40.515C80.8901 40.6004 80.9221 40.755 80.9754 40.979C81.0287 41.203 81.1034 41.4377 81.1994 41.683C81.3061 41.9284 81.4341 42.1417 81.5834 42.323C81.7327 42.4937 81.9141 42.579 82.1274 42.579C82.4367 42.579 82.7301 42.4617 83.0074 42.227C83.2847 41.9924 83.5461 41.683 83.7914 41.299C84.0474 40.9044 84.2821 40.4617 84.4954 39.971L84.6554 40.131C84.5061 40.6537 84.2767 41.1497 83.9674 41.619C83.6581 42.0777 83.3114 42.451 82.9274 42.739C82.5541 43.0377 82.1807 43.187 81.8074 43.187ZM79.4714 36.483C79.9621 36.0884 80.3887 35.6404 80.7514 35.139C81.1247 34.6377 81.4127 34.1577 81.6154 33.699C81.8181 33.2297 81.9194 32.8617 81.9194 32.595C81.9194 32.5417 81.9141 32.5044 81.9034 32.483C81.9034 32.4617 81.8927 32.451 81.8714 32.451C81.7647 32.451 81.5781 32.6377 81.3114 33.011C81.0554 33.3844 80.7621 33.8804 80.4314 34.499C80.1007 35.107 79.7807 35.7684 79.4714 36.483Z" fill="currentColor"/>
<path d="M73.2197 43.395C72.7184 43.395 72.3184 43.283 72.0197 43.059C71.7317 42.8457 71.5291 42.579 71.4117 42.259C71.2837 41.939 71.2197 41.619 71.2197 41.299C71.2197 40.979 71.2624 40.7337 71.3477 40.563C71.4331 40.3924 71.5344 40.2644 71.6517 40.179C71.7797 40.0937 71.8971 40.0297 72.0037 39.987C72.1211 39.9444 72.2011 39.9017 72.2437 39.859C72.5637 39.507 72.8571 39.139 73.1237 38.755C73.3904 38.371 73.6251 37.9657 73.8277 37.539V37.347C73.8277 36.9524 73.8917 36.675 74.0197 36.515C74.1584 36.3444 74.3024 36.259 74.4517 36.259C74.5371 36.259 74.6011 36.2804 74.6437 36.323C74.6864 36.3657 74.7077 36.4137 74.7077 36.467C74.7077 36.5204 74.6917 36.6057 74.6597 36.723C74.6277 36.8404 74.6117 36.9897 74.6117 37.171C74.6117 37.523 74.6811 37.907 74.8197 38.323C74.9584 38.7284 75.0971 39.1604 75.2357 39.619C75.3744 40.067 75.4437 40.5364 75.4437 41.027C75.4437 41.1657 75.4331 41.3044 75.4117 41.443C75.4011 41.571 75.3797 41.6937 75.3477 41.811C75.7211 41.747 76.0731 41.5817 76.4037 41.315C76.7344 41.0377 77.0544 40.6004 77.3637 40.003L77.5077 40.163C77.3051 40.7497 77.0011 41.1977 76.5957 41.507C76.1904 41.8057 75.7477 41.9924 75.2677 42.067C75.0971 42.5257 74.8251 42.8617 74.4517 43.075C74.0891 43.2884 73.6784 43.395 73.2197 43.395ZM73.2517 42.835C73.3797 42.835 73.5504 42.7924 73.7637 42.707C73.9771 42.6217 74.1424 42.403 74.2597 42.051C73.8117 41.9657 73.4117 41.7897 73.0597 41.523C72.7184 41.2564 72.4624 40.9897 72.2917 40.723C72.0571 40.7337 71.9397 40.9204 71.9397 41.283C71.9397 41.667 72.0517 42.0244 72.2757 42.355C72.5104 42.675 72.8357 42.835 73.2517 42.835ZM74.3397 41.795C74.3611 41.6884 74.3771 41.5764 74.3877 41.459C74.3984 41.3417 74.4037 41.203 74.4037 41.043C74.4037 40.5417 74.3397 40.0457 74.2117 39.555C74.0944 39.0537 73.9931 38.5844 73.9077 38.147C73.6624 38.5524 73.4011 38.9417 73.1237 39.315C72.8571 39.6777 72.6011 39.9817 72.3557 40.227C72.5157 40.5684 72.7611 40.8884 73.0917 41.187C73.4331 41.4857 73.8491 41.6884 74.3397 41.795Z" fill="currentColor"/>
<path d="M60.5961 43.971C59.9561 43.971 59.4014 43.8377 58.9321 43.571C58.4627 43.3043 58.1001 42.9523 57.8441 42.515C57.5987 42.067 57.4761 41.5817 57.4761 41.059C57.4761 40.5683 57.5827 40.0883 57.7961 39.619C58.0094 39.1497 58.3027 38.723 58.6761 38.339C59.0601 37.9443 59.5027 37.6243 60.0041 37.379C60.5054 37.123 61.0441 36.9683 61.6201 36.915C61.2041 36.5737 60.8947 36.179 60.6921 35.731C60.5001 35.283 60.4041 34.835 60.4041 34.387C60.4041 33.8217 60.5481 33.2883 60.8361 32.787C61.1241 32.275 61.5134 31.8643 62.0041 31.555C62.5054 31.235 63.0761 31.075 63.7161 31.075C64.2921 31.075 64.7241 31.219 65.0121 31.507C65.3107 31.795 65.4601 32.2163 65.4601 32.771C65.4601 33.1657 65.3961 33.555 65.2681 33.939C65.1401 34.3123 64.9801 34.6217 64.7881 34.867C64.6067 35.1017 64.4254 35.219 64.2441 35.219C64.1267 35.219 64.0147 35.171 63.9081 35.075C63.8014 34.9683 63.7161 34.8457 63.6521 34.707C64.0254 34.3763 64.3347 34.035 64.5801 33.683C64.8361 33.3203 64.9641 32.931 64.9641 32.515C64.9641 32.1843 64.8734 31.9177 64.6921 31.715C64.5214 31.5017 64.2494 31.395 63.8761 31.395C63.3747 31.395 62.9534 31.5497 62.6121 31.859C62.2707 32.1577 62.0094 32.5577 61.8281 33.059C61.6574 33.5497 61.5721 34.083 61.5721 34.659C61.5721 34.915 61.5934 35.187 61.6361 35.475C61.6894 35.763 61.7801 36.0457 61.9081 36.323C62.0467 36.6003 62.2441 36.851 62.5001 37.075C61.7854 37.1923 61.1614 37.4643 60.6281 37.891C60.1054 38.3177 59.6947 38.819 59.3961 39.395C59.1081 39.971 58.9641 40.5417 58.9641 41.107C58.9641 41.459 59.0281 41.8163 59.1561 42.179C59.2947 42.531 59.5134 42.8243 59.8121 43.059C60.1107 43.3043 60.5107 43.427 61.0121 43.427C61.5774 43.427 62.1214 43.283 62.6441 42.995C63.1774 42.707 63.6574 42.323 64.0841 41.843C64.5214 41.363 64.8787 40.8243 65.1561 40.227C65.4334 39.619 65.6094 38.995 65.6841 38.355C65.4601 38.3657 65.2521 38.3817 65.0601 38.403C64.8787 38.4243 64.6761 38.4563 64.4521 38.499C64.2281 38.531 63.9401 38.5843 63.5881 38.659C63.6094 38.211 63.7801 37.9123 64.1001 37.763C64.4201 37.6137 64.8041 37.539 65.2521 37.539C65.5721 37.539 65.8761 37.5603 66.1641 37.603C66.4521 37.6457 66.7241 37.6883 66.9801 37.731C67.2467 37.7737 67.4867 37.8003 67.7001 37.811C67.5827 38.0563 67.4654 38.2057 67.3481 38.259C67.2414 38.3017 67.1347 38.323 67.0281 38.323C66.8467 38.323 66.6761 38.3283 66.5161 38.339C66.3667 38.339 66.2281 38.339 66.1001 38.339C66.0254 39.075 65.8227 39.779 65.4921 40.451C65.1721 41.123 64.7561 41.7257 64.2441 42.259C63.7427 42.7817 63.1774 43.1977 62.5481 43.507C61.9294 43.8163 61.2787 43.971 60.5961 43.971Z" fill="currentColor"/>
<path d="M50.9145 43.059C50.4559 43.059 50.1252 42.899 49.9225 42.579C49.7305 42.2697 49.6345 41.8804 49.6345 41.411C49.6345 40.899 49.7305 40.291 49.9225 39.587C50.1145 38.883 50.3652 38.1417 50.6745 37.363C50.9945 36.5844 51.3412 35.827 51.7145 35.091C52.0879 34.3444 52.4612 33.667 52.8345 33.059C53.2079 32.451 53.5492 31.9657 53.8585 31.603C54.1785 31.2404 54.4292 31.059 54.6105 31.059C54.7279 31.059 54.8239 31.1284 54.8985 31.267C54.9732 31.395 55.0319 31.555 55.0745 31.747C55.1172 31.9284 55.1385 32.0937 55.1385 32.243C55.1385 32.531 55.0639 32.9097 54.9145 33.379C54.7759 33.8377 54.5732 34.355 54.3065 34.931C54.0505 35.4964 53.7412 36.0724 53.3785 36.659C53.0265 37.235 52.6372 37.7897 52.2105 38.323C51.7945 38.8564 51.3519 39.315 50.8825 39.699C50.8185 39.987 50.7652 40.2697 50.7225 40.547C50.6905 40.8137 50.6745 41.0697 50.6745 41.315C50.6745 41.731 50.7332 42.0404 50.8505 42.243C50.9679 42.4457 51.1439 42.547 51.3785 42.547C51.6665 42.547 51.9492 42.419 52.2265 42.163C52.5145 41.907 52.7812 41.587 53.0265 41.203C53.2825 40.8084 53.5012 40.403 53.6825 39.987L53.9225 40.115C53.4959 41.0217 53.0319 41.7417 52.5305 42.275C52.0292 42.7977 51.4905 43.059 50.9145 43.059ZM51.0265 39.155C51.3999 38.7817 51.7625 38.355 52.1145 37.875C52.4665 37.3844 52.7919 36.8777 53.0905 36.355C53.3999 35.8324 53.6719 35.3257 53.9065 34.835C54.1412 34.3444 54.3225 33.907 54.4505 33.523C54.5785 33.1284 54.6425 32.8244 54.6425 32.611C54.6425 32.5044 54.6265 32.435 54.5945 32.403C54.5732 32.371 54.5519 32.355 54.5305 32.355C54.4452 32.355 54.2959 32.4937 54.0825 32.771C53.8799 33.0377 53.6399 33.4004 53.3625 33.859C53.0852 34.3177 52.8025 34.8404 52.5145 35.427C52.2265 36.0137 51.9492 36.627 51.6825 37.267C51.4265 37.907 51.2079 38.5364 51.0265 39.155Z" fill="currentColor"/>
<path d="M43.3859 43.331C43.0552 43.331 42.7779 43.219 42.5539 42.995C42.3192 42.7817 42.2019 42.451 42.2019 42.003C42.2019 41.619 42.2872 41.2083 42.4579 40.771C42.6286 40.323 42.8632 39.8857 43.1619 39.459C43.4606 39.0217 43.7966 38.627 44.1699 38.275C44.5539 37.9123 44.9539 37.6243 45.3699 37.411C45.7966 37.1977 46.2179 37.091 46.6339 37.091C47.0499 37.091 47.3966 37.203 47.6739 37.427C47.9512 37.6403 48.0899 37.9283 48.0899 38.291C48.0899 38.5577 48.0152 38.739 47.8659 38.835C47.7272 38.931 47.5406 38.979 47.3059 38.979C47.3272 38.8937 47.3432 38.803 47.3539 38.707C47.3752 38.6003 47.3859 38.5043 47.3859 38.419C47.3859 38.1737 47.3272 37.9657 47.2099 37.795C47.0926 37.6137 46.8899 37.523 46.6019 37.523C46.3032 37.523 45.9992 37.6297 45.6899 37.843C45.3806 38.0457 45.0819 38.323 44.7939 38.675C44.5059 39.0163 44.2499 39.3897 44.0259 39.795C43.8019 40.2003 43.6259 40.6003 43.4979 40.995C43.3699 41.3897 43.3059 41.7417 43.3059 42.051C43.3059 42.467 43.4499 42.675 43.7379 42.675C43.9832 42.675 44.2499 42.563 44.5379 42.339C44.8259 42.1043 45.1192 41.811 45.4179 41.459C45.7272 41.0963 46.0206 40.723 46.2979 40.339C46.5752 39.955 46.8206 39.603 47.0339 39.283C47.0766 39.219 47.1032 39.187 47.1139 39.187C47.1779 39.1977 47.2579 39.219 47.3539 39.251C47.4606 39.283 47.5512 39.3257 47.6259 39.379C47.7006 39.4323 47.7379 39.5017 47.7379 39.587C47.7379 39.683 47.6899 39.8163 47.5939 39.987C47.4979 40.147 47.3912 40.3337 47.2739 40.547C47.1566 40.7603 47.0499 40.979 46.9539 41.203C46.8579 41.4163 46.8099 41.619 46.8099 41.811C46.8099 41.971 46.8526 42.131 46.9379 42.291C47.0232 42.4403 47.1619 42.515 47.3539 42.515C47.6419 42.515 48.0206 42.307 48.4899 41.891C48.9592 41.4643 49.4339 40.8297 49.9139 39.987L50.0739 40.147C49.8499 40.723 49.5619 41.2297 49.2099 41.667C48.8579 42.1043 48.4792 42.4457 48.0739 42.691C47.6792 42.9363 47.2899 43.059 46.9059 43.059C46.5112 43.059 46.2179 42.9417 46.0259 42.707C45.8446 42.4723 45.7539 42.2163 45.7539 41.939C45.7539 41.875 45.7592 41.8057 45.7699 41.731C45.7806 41.6457 45.7912 41.5603 45.8019 41.475C45.3432 42.0937 44.9219 42.5577 44.5379 42.867C44.1646 43.1763 43.7806 43.331 43.3859 43.331Z" fill="currentColor"/>
<path d="M39.9105 42.995C39.4945 42.995 39.1851 42.8617 38.9825 42.595C38.7798 42.339 38.6785 42.0243 38.6785 41.651C38.6785 41.4057 38.7211 41.0963 38.8065 40.723C38.9025 40.3497 39.0251 39.9603 39.1745 39.555C39.3238 39.139 39.4945 38.7497 39.6865 38.387C39.8891 38.0243 40.1025 37.731 40.3265 37.507C40.5505 37.2723 40.7691 37.155 40.9825 37.155C41.0785 37.155 41.1585 37.187 41.2225 37.251C41.2971 37.3043 41.3345 37.3897 41.3345 37.507C41.3345 37.635 41.2491 37.843 41.0785 38.131C40.9185 38.419 40.7265 38.7497 40.5025 39.123C40.2785 39.4963 40.0811 39.891 39.9105 40.307C39.7505 40.7123 39.6705 41.1017 39.6705 41.475C39.6705 41.859 39.7345 42.115 39.8625 42.243C39.9905 42.371 40.1878 42.435 40.4545 42.435C40.8171 42.435 41.2011 42.2537 41.6065 41.891C42.0225 41.5283 42.4598 40.8937 42.9185 39.987L43.0625 40.147C42.7531 41.0643 42.3051 41.7683 41.7185 42.259C41.1425 42.7497 40.5398 42.995 39.9105 42.995ZM41.8305 35.667C41.6598 35.667 41.5051 35.6243 41.3665 35.539C41.2385 35.4537 41.1745 35.3203 41.1745 35.139C41.1745 34.915 41.3025 34.723 41.5585 34.563C41.8251 34.3923 42.0865 34.307 42.3425 34.307C42.5025 34.307 42.6305 34.3443 42.7265 34.419C42.8225 34.4937 42.8705 34.6217 42.8705 34.803C42.8705 35.0057 42.7585 35.203 42.5345 35.395C42.3211 35.5763 42.0865 35.667 41.8305 35.667Z" fill="currentColor"/>
<path d="M35.2986 43.475C34.7866 43.475 34.3599 43.3044 34.0186 42.963C33.6773 42.6217 33.5066 42.1097 33.5066 41.427C33.5066 40.8937 33.6079 40.3764 33.8106 39.875C34.0239 39.363 34.3013 38.9044 34.6426 38.499C34.9839 38.0937 35.3626 37.7737 35.7786 37.539C36.1946 37.2937 36.6053 37.171 37.0106 37.171C37.4479 37.171 37.7466 37.299 37.9066 37.555C38.0666 37.811 38.1466 38.0777 38.1466 38.355C38.1466 38.6644 38.0719 38.9364 37.9226 39.171C37.7839 39.4057 37.5919 39.523 37.3466 39.523C37.1653 39.523 37.0106 39.443 36.8826 39.283C37.0426 39.1977 37.1813 39.027 37.2986 38.771C37.4159 38.5044 37.4746 38.2537 37.4746 38.019C37.4746 37.891 37.4479 37.795 37.3946 37.731C37.3519 37.6564 37.2613 37.619 37.1226 37.619C36.8346 37.619 36.5359 37.747 36.2266 38.003C35.9279 38.259 35.6453 38.5897 35.3786 38.995C35.1226 39.4004 34.9093 39.827 34.7386 40.275C34.5786 40.723 34.4986 41.1444 34.4986 41.539C34.4986 41.8697 34.5786 42.1737 34.7386 42.451C34.8986 42.7284 35.2079 42.867 35.6666 42.867C36.0933 42.867 36.5199 42.7497 36.9466 42.515C37.3839 42.2804 37.7893 41.9444 38.1626 41.507C38.5359 41.0697 38.8346 40.5577 39.0586 39.971L39.2666 40.131C39.0213 40.771 38.6853 41.347 38.2586 41.859C37.8319 42.3604 37.3626 42.755 36.8506 43.043C36.3386 43.331 35.8213 43.475 35.2986 43.475Z" fill="currentColor"/>
<path d="M27.3859 43.331C27.0552 43.331 26.7779 43.219 26.5539 42.995C26.3192 42.7817 26.2019 42.451 26.2019 42.003C26.2019 41.619 26.2872 41.2083 26.4579 40.771C26.6286 40.323 26.8632 39.8857 27.1619 39.459C27.4606 39.0217 27.7966 38.627 28.1699 38.275C28.5539 37.9123 28.9539 37.6243 29.3699 37.411C29.7966 37.1977 30.2179 37.091 30.6339 37.091C31.0499 37.091 31.3966 37.203 31.6739 37.427C31.9512 37.6403 32.0899 37.9283 32.0899 38.291C32.0899 38.5577 32.0152 38.739 31.8659 38.835C31.7272 38.931 31.5406 38.979 31.3059 38.979C31.3272 38.8937 31.3432 38.803 31.3539 38.707C31.3752 38.6003 31.3859 38.5043 31.3859 38.419C31.3859 38.1737 31.3272 37.9657 31.2099 37.795C31.0926 37.6137 30.8899 37.523 30.6019 37.523C30.3032 37.523 29.9992 37.6297 29.6899 37.843C29.3806 38.0457 29.0819 38.323 28.7939 38.675C28.5059 39.0163 28.2499 39.3897 28.0259 39.795C27.8019 40.2003 27.6259 40.6003 27.4979 40.995C27.3699 41.3897 27.3059 41.7417 27.3059 42.051C27.3059 42.467 27.4499 42.675 27.7379 42.675C27.9832 42.675 28.2499 42.563 28.5379 42.339C28.8259 42.1043 29.1192 41.811 29.4179 41.459C29.7272 41.0963 30.0206 40.723 30.2979 40.339C30.5752 39.955 30.8206 39.603 31.0339 39.283C31.0766 39.219 31.1032 39.187 31.1139 39.187C31.1779 39.1977 31.2579 39.219 31.3539 39.251C31.4606 39.283 31.5512 39.3257 31.6259 39.379C31.7006 39.4323 31.7379 39.5017 31.7379 39.587C31.7379 39.683 31.6899 39.8163 31.5939 39.987C31.4979 40.147 31.3912 40.3337 31.2739 40.547C31.1566 40.7603 31.0499 40.979 30.9539 41.203C30.8579 41.4163 30.8099 41.619 30.8099 41.811C30.8099 41.971 30.8526 42.131 30.9379 42.291C31.0232 42.4403 31.1619 42.515 31.3539 42.515C31.6419 42.515 32.0206 42.307 32.4899 41.891C32.9592 41.4643 33.4339 40.8297 33.9139 39.987L34.0739 40.147C33.8499 40.723 33.5619 41.2297 33.2099 41.667C32.8579 42.1043 32.4792 42.4457 32.0739 42.691C31.6792 42.9363 31.2899 43.059 30.9059 43.059C30.5112 43.059 30.2179 42.9417 30.0259 42.707C29.8446 42.4723 29.7539 42.2163 29.7539 41.939C29.7539 41.875 29.7592 41.8057 29.7699 41.731C29.7806 41.6457 29.7912 41.5603 29.8019 41.475C29.3432 42.0937 28.9219 42.5577 28.5379 42.867C28.1646 43.1763 27.7806 43.331 27.3859 43.331Z" fill="currentColor"/>
<path d="M22.003 43.971C21.5123 43.9284 21.2083 43.795 21.091 43.571C20.9736 43.347 20.915 43.059 20.915 42.707C20.915 42.323 20.995 41.8537 21.155 41.299C21.315 40.7337 21.5123 40.1204 21.747 39.459C21.9923 38.7977 22.2376 38.1364 22.483 37.475C22.355 37.4857 22.2163 37.5017 22.067 37.523C21.9283 37.5337 21.7523 37.555 21.539 37.587C21.3256 37.6084 21.0483 37.6457 20.707 37.699C20.7283 37.4217 20.8296 37.2084 21.011 37.059C21.203 36.899 21.4536 36.7817 21.763 36.707C22.0723 36.6324 22.419 36.5897 22.803 36.579C23.1016 35.7577 23.4056 34.9577 23.715 34.179C24.035 33.3897 24.3496 32.6697 24.659 32.019C24.5523 32.0084 24.4456 32.003 24.339 32.003C24.243 31.9924 24.1416 31.987 24.035 31.987C23.3523 31.987 22.8243 32.0564 22.451 32.195C22.0776 32.3337 21.8216 32.547 21.683 32.835C21.5443 33.123 21.475 33.491 21.475 33.939C21.475 34.1737 21.491 34.3924 21.523 34.595C21.555 34.787 21.6083 34.9897 21.683 35.203C21.3203 35.139 21.0536 35.0004 20.883 34.787C20.7123 34.563 20.627 34.2857 20.627 33.955C20.627 33.4004 20.8243 32.915 21.219 32.499C21.6136 32.0724 22.1416 31.7417 22.803 31.507C23.475 31.2617 24.2163 31.139 25.027 31.139C25.5923 31.139 26.1363 31.1817 26.659 31.267C27.1923 31.3417 27.7096 31.379 28.211 31.379C28.435 31.379 28.6376 31.3684 28.819 31.347C29.011 31.315 29.203 31.2724 29.395 31.219C29.0003 31.667 28.6696 31.9657 28.403 32.115C28.1363 32.2644 27.8643 32.339 27.587 32.339C27.3416 32.339 27.0216 32.307 26.627 32.243C26.243 32.1684 25.8056 32.1097 25.315 32.067C25.1763 32.419 25.0216 32.8457 24.851 33.347C24.6803 33.8377 24.5043 34.3657 24.323 34.931C24.1416 35.4857 23.9603 36.0404 23.779 36.595C24.3123 36.627 24.8136 36.675 25.283 36.739C25.763 36.803 26.195 36.8404 26.579 36.851C26.4936 36.979 26.3923 37.0804 26.275 37.155C26.1683 37.219 26.0136 37.267 25.811 37.299C25.6083 37.331 25.3256 37.3577 24.963 37.379C24.611 37.3897 24.1363 37.4004 23.539 37.411C23.475 37.635 23.395 37.9017 23.299 38.211C23.203 38.5204 23.1176 38.8137 23.043 39.091C22.9683 39.3684 22.9096 39.571 22.867 39.699C22.6323 40.5204 22.4296 41.2884 22.259 42.003C22.099 42.7177 22.0136 43.3737 22.003 43.971Z" fill="currentColor"/>
</svg>
